<?xml version="1.0" encoding="UTF-8" standalone="no"?><!DOCTYPE svg PUBLIC "-//W3C//DTD SVG 1.1//EN" "http://www.w3.org/Graphics/SVG/1.1/DTD/svg11.dtd"><svg width="100%" height="100%" viewBox="0 0 2500 2500" version="1.1" xmlns="http://www.w3.org/2000/svg" xmlns:xlink="http://www.w3.org/1999/xlink" xml:space="preserve" xmlns:serif="http://www.serif.com/" style="fill-rule:evenodd;clip-rule:evenodd;stroke-linejoin:round;stroke-miterlimit:2;"><g><path d="M2396.97,1184.991c-11.504,-40.374 -11.504,-92.3 -28.797,-132.673c-11.553,-69.195 -34.634,-138.413 -57.666,-201.868c-11.553,-23.057 -23.081,-51.902 -40.398,-74.983c-5.764,-17.293 -17.317,-28.821 -23.081,-46.138c-23.033,-28.821 -28.797,-51.902 -46.114,-80.747c-23.081,-23.057 -40.398,-51.902 -57.666,-74.983c-23.081,-28.821 -46.162,-51.926 -69.195,-80.747c-17.317,-5.764 -23.081,-28.821 -40.398,-40.374c-11.553,-11.528 -28.845,-17.293 -34.634,-28.821c-23.033,-23.081 -46.114,-46.138 -69.195,-63.455c-40.349,-34.585 -86.511,-40.374 -121.097,-74.983l-28.845,-17.293c-28.797,-17.317 -63.43,-28.845 -92.3,-40.374c-23.033,-17.317 -46.114,-23.081 -74.983,-34.609c-17.317,-5.764 -40.349,-17.293 -57.666,-23.081c-5.764,0 -11.553,-5.764 -17.317,0c-51.902,0 -92.3,-23.081 -138.413,-28.821c-40.398,0 -86.511,-5.764 -126.885,-11.553l-51.902,0c-34.609,5.764 -69.219,5.764 -103.828,11.553c-46.138,5.764 -98.04,11.528 -144.177,28.821c-46.138,17.293 -92.3,34.609 -144.202,51.926c-5.764,5.764 -17.293,11.528 -28.845,11.528c-28.821,11.528 -51.902,28.845 -80.747,34.609c-34.609,23.057 -69.195,28.821 -92.276,57.666c-34.609,11.528 -63.455,28.821 -86.511,51.902c-34.609,11.553 -63.455,40.374 -92.276,63.455c-28.821,34.609 -63.455,57.666 -92.3,86.511c-5.764,17.317 -23.057,28.845 -28.821,46.138c-11.553,17.317 -28.821,34.609 -40.374,51.926c-17.293,17.293 -28.821,34.609 -40.374,57.666c-17.317,28.845 -34.609,51.926 -46.138,80.747c-5.764,23.081 -17.293,40.374 -28.821,57.69c-11.553,23.057 -23.081,51.902 -28.845,74.983c-11.528,28.821 -23.081,57.666 -28.845,86.511c0,5.764 -11.528,17.293 -5.764,28.821c-11.528,23.081 -11.528,46.138 -17.293,69.219c0,40.374 -11.553,69.195 -11.553,109.592c0,28.821 -5.764,63.43 -5.764,98.04c0,51.926 0,103.828 5.764,155.73c5.764,23.081 5.764,46.138 11.553,69.195c17.293,57.666 28.821,121.121 51.902,178.787c11.528,40.374 28.845,80.747 46.138,121.121c11.528,17.317 28.821,40.374 34.609,63.455c17.293,23.081 28.845,51.926 51.902,74.983c0,11.528 11.553,11.528 17.317,23.081c11.528,11.553 17.293,28.845 28.821,46.138c11.553,11.553 23.081,28.821 40.374,46.138c5.764,11.553 17.293,17.293 23.081,28.821c17.293,11.553 28.845,23.081 40.374,34.609c23.081,11.528 34.609,34.585 57.666,51.902c51.926,40.398 103.828,80.747 161.494,109.592c28.845,11.553 51.926,28.845 74.983,40.349c34.609,17.317 69.219,28.845 103.828,46.162c34.609,0 57.666,17.317 92.276,17.317c11.553,0 17.317,5.764 34.609,5.764c40.374,11.504 80.747,23.033 121.121,28.797c69.219,5.764 138.413,17.317 207.632,5.764c92.276,0 178.787,-17.317 259.534,-40.349l121.145,-34.634c46.114,-23.081 92.3,-40.349 138.413,-63.43c11.553,-5.764 23.081,-17.317 34.634,-17.317c34.585,-17.317 63.43,-46.114 92.251,-69.195c46.162,-23.081 92.3,-63.43 132.698,-98.064c34.585,-40.374 74.983,-80.723 98.064,-126.885c34.585,-40.374 69.195,-86.511 92.251,-132.673c0,0 5.764,-5.764 5.764,-11.528c0,-11.528 11.553,-23.081 11.553,-34.609c11.553,-34.609 34.634,-63.43 46.162,-98.04c11.504,-23.081 17.268,-40.374 17.268,-63.455c17.317,-34.609 28.845,-74.983 34.634,-109.568c11.553,-69.195 28.845,-138.413 34.585,-213.42c11.432,-40.301 -0.097,-92.203 -0.097,-138.341Zm-34.585,184.551c-11.553,63.455 -23.081,121.121 -40.398,178.811c-5.716,46.138 -23.033,80.747 -34.585,126.885c-11.553,23.081 -17.317,51.902 -34.634,74.983c-17.317,34.609 -40.349,69.219 -57.666,109.592c-24.848,43.576 -51.795,85.921 -80.747,126.885c-17.317,23.057 -34.634,46.138 -51.902,63.43c-23.081,23.081 -40.398,51.926 -69.195,69.219c-34.634,23.081 -69.243,46.114 -103.828,74.983l-46.162,28.845c-17.268,5.764 -34.585,23.081 -51.902,34.585c-17.317,11.553 -34.634,17.317 -46.114,23.081c-46.162,23.081 -92.3,46.114 -144.226,63.43c-40.349,17.317 -80.747,17.317 -121.097,34.634c-51.902,11.553 -98.064,17.317 -149.942,23.081c-51.926,0 -103.828,11.504 -155.73,0c-28.821,-5.764 -63.455,-5.764 -98.064,-5.764c-11.528,0 -23.057,-5.764 -34.609,-5.764c-34.609,-11.553 -69.195,-23.081 -103.804,-23.081l-121.121,-34.634c-5.764,-5.764 -17.317,-5.764 -28.845,-11.504c-40.374,-23.081 -86.511,-40.398 -121.121,-63.479l-11.528,-5.764c-28.845,-23.033 -63.455,-46.114 -92.3,-63.43c-40.374,-28.821 -74.983,-51.902 -109.568,-86.511c-23.081,-17.293 -40.374,-46.138 -63.455,-63.455c-17.293,-17.293 -28.845,-34.609 -46.138,-46.138c-28.845,-34.609 -40.374,-69.219 -69.219,-103.828c-23.057,-28.821 -34.609,-63.43 -51.902,-98.04c-11.528,-23.057 -23.081,-46.138 -34.609,-74.959c-11.528,-40.374 -23.081,-80.747 -40.374,-121.121c-5.764,-28.821 -17.293,-57.666 -17.293,-86.511c-5.764,-40.374 -17.317,-86.511 -11.553,-132.673c-5.764,-23.057 -5.764,-51.926 -5.764,-80.747c0,-5.764 5.764,-17.293 5.764,-28.821c-5.764,-23.081 5.764,-40.374 0,-63.455c0,-34.609 11.553,-69.219 11.553,-103.828c5.764,-23.081 5.764,-51.926 11.528,-74.983c5.764,-11.553 5.764,-28.845 17.293,-40.374c0,-28.845 11.553,-46.138 17.317,-74.983c11.112,-28.026 24.619,-55.042 40.374,-80.747c17.317,-28.845 28.845,-57.69 40.374,-86.511c23.057,-34.609 34.609,-69.219 63.43,-98.04c17.317,-23.081 40.374,-51.902 57.666,-74.983c11.553,-23.057 34.609,-34.609 51.926,-51.902c34.609,-34.609 69.219,-63.455 109.568,-86.511c28.845,-17.317 51.902,-34.609 74.983,-51.926c5.764,-5.764 17.293,-5.764 23.057,-11.553c40.374,-23.057 80.747,-51.902 126.885,-74.983c57.69,-28.821 121.121,-46.138 184.575,-69.195c23.081,0 46.138,-5.764 69.195,-17.317c17.317,0 34.609,-5.764 51.926,-11.528c23.081,-5.764 40.374,-5.764 63.455,-11.528c40.374,-5.764 80.747,5.764 126.885,5.764c17.293,0 28.821,-5.764 46.138,-5.764l34.634,0c34.585,0 63.43,5.764 92.251,11.528c17.317,5.764 34.634,5.764 46.162,11.528c23.081,0 40.349,11.553 57.666,17.317c23.081,5.764 46.162,5.764 63.43,11.528c51.95,23.081 103.828,40.374 149.99,63.455c40.349,28.845 80.747,40.374 115.332,69.195c28.845,17.317 57.666,40.374 86.511,63.455c11.553,5.764 23.081,23.057 34.634,34.609c17.268,17.293 40.349,34.609 57.666,51.902c17.317,11.528 28.845,28.845 46.114,46.138c11.553,17.317 23.081,34.609 40.398,51.926c28.797,40.374 57.666,80.747 80.747,126.885c23.033,23.057 40.349,57.666 51.902,86.511c17.317,46.138 40.398,92.276 51.95,138.413c11.504,40.374 28.797,80.723 34.585,121.097c5.764,34.609 11.553,69.219 11.553,109.592c5.764,28.845 5.764,57.666 5.764,92.276c-0.024,23.081 -0.024,57.715 -5.788,80.771Z" style="fill:#fff;"/><path d="M2316.272,1219.576c0,-28.821 0,-57.69 -5.764,-80.747c-11.553,-92.3 -28.845,-178.787 -63.479,-259.534c-5.764,-17.293 -11.553,-34.609 -23.033,-51.902c-5.764,-17.317 -17.317,-34.609 -28.845,-46.138l0,-5.764c-46.114,-57.666 -69.195,-126.885 -121.097,-178.787c-57.715,-57.666 -109.592,-121.121 -178.811,-161.494c-40.398,-40.374 -86.511,-69.219 -132.698,-98.04c-28.797,-11.528 -51.902,-23.081 -74.983,-40.374c-23.033,-11.553 -51.902,-17.293 -74.983,-28.821c-46.114,-17.317 -98.016,-17.317 -144.177,-34.609c-28.845,-5.764 -57.666,-5.764 -92.3,-11.528l-138.413,0c-34.609,-5.764 -74.983,-5.764 -103.804,5.764c-23.081,0 -46.138,5.764 -63.455,5.764c-34.609,0 -63.455,17.293 -98.04,17.293c-11.553,5.764 -23.081,11.553 -34.609,11.553c-28.845,17.293 -57.69,17.293 -86.511,28.821c-23.081,0 -40.374,17.293 -63.455,23.081c-11.528,17.293 -34.609,11.553 -51.902,28.845c-57.69,28.821 -109.592,74.983 -173.047,98.04c-46.138,40.374 -103.804,74.983 -138.413,126.885c-23.081,17.317 -34.609,40.374 -51.902,57.69c-17.317,17.293 -17.317,40.374 -34.609,57.666c-11.553,28.845 -34.609,51.926 -40.374,80.747c-11.553,11.553 -11.553,23.081 -23.081,34.609c-5.764,17.293 -17.293,40.374 -28.821,63.455c-5.764,17.293 -17.317,28.821 -17.317,46.138c-11.528,23.057 -23.057,46.138 -28.821,74.983c-11.528,17.293 -11.528,34.609 -17.293,51.902c-11.553,51.902 -28.845,98.04 -28.845,155.73c-11.528,40.374 -5.764,80.723 -5.764,126.885c-5.764,11.553 0,23.081 0,40.374c5.764,23.081 5.764,46.138 5.764,74.983l5.764,5.764c5.764,17.293 5.764,40.374 11.553,63.455c5.764,40.374 17.293,80.747 28.821,115.357c23.081,46.138 34.609,92.3 51.926,132.649c11.528,28.845 23.057,51.926 40.374,74.983c17.293,46.138 51.926,86.511 74.983,132.649c34.609,40.374 74.983,80.747 109.568,115.357c51.926,57.69 115.357,98.04 173.047,132.673c51.902,34.634 103.804,51.902 161.494,80.747c34.609,11.553 63.455,23.081 98.04,34.634c28.845,5.716 51.902,23.033 86.511,23.033c23.057,0 40.374,11.553 63.455,11.553c80.747,11.553 161.494,17.317 242.217,5.764c40.398,-5.764 80.747,-5.764 121.145,-11.553c68.861,-10.439 136.488,-27.828 201.844,-51.902c34.634,-23.081 74.983,-34.634 109.592,-51.902c63.43,-28.845 121.097,-57.715 178.811,-103.852c28.797,-17.317 51.902,-46.138 80.747,-69.219c34.585,-40.374 69.195,-74.983 103.78,-115.357c0,-5.764 5.764,-17.293 11.553,-23.081c28.845,-34.609 46.162,-69.195 74.983,-98.04c5.764,-23.081 28.845,-46.138 34.634,-69.195c5.764,-23.081 17.268,-40.374 28.797,-63.455c11.553,-28.845 17.317,-63.455 28.845,-98.04c11.553,-46.138 28.845,-92.3 28.845,-144.202c5.764,-46.138 17.268,-92.3 11.553,-138.438c0,-34.634 5.716,-69.243 0,-103.852Zm-40.398,219.185l0,28.845c-5.764,28.821 -11.553,57.666 -23.081,86.511c-17.317,63.43 -34.585,132.649 -63.43,196.079l-51.902,86.511c-28.845,40.374 -57.715,80.747 -80.747,121.121c-11.553,11.553 -28.845,23.081 -40.398,34.609c-17.317,34.609 -51.902,57.666 -80.747,80.723c-28.797,34.609 -69.195,51.902 -103.78,80.747c-40.398,34.609 -86.511,46.138 -132.698,75.007c-17.317,11.553 -40.349,17.317 -63.43,34.585c-17.317,0 -28.845,11.553 -51.902,17.317c-46.162,17.317 -98.064,23.081 -149.99,28.845c-28.797,5.764 -57.666,17.268 -86.463,17.268c-28.845,5.764 -51.95,5.764 -75.007,5.764c-23.081,0 -40.374,5.764 -63.455,0c-17.293,-5.764 -40.374,0 -63.43,0c-46.138,0 -92.3,0 -132.673,-17.268c-28.821,-5.764 -63.455,-17.317 -98.064,-23.081c-40.374,-17.317 -80.723,-28.845 -121.097,-46.114c-51.926,-23.081 -103.828,-46.162 -149.966,-86.536c-28.821,-23.081 -57.666,-34.609 -86.511,-57.666c-34.609,-28.845 -74.983,-57.666 -98.04,-98.04c-17.317,-11.528 -28.845,-28.845 -40.374,-46.138c0,-5.764 -11.553,-5.764 -11.553,-17.293c-23.081,-34.609 -46.138,-63.455 -63.43,-98.04c-11.553,-5.764 -11.553,-23.081 -17.317,-28.845c-23.081,-40.374 -46.138,-80.747 -63.455,-126.885c-11.528,-23.057 -17.293,-51.902 -28.821,-74.983c-6.417,-24.841 -12.191,-49.844 -17.317,-74.983c-0,-11.553 -5.764,-17.293 -11.528,-28.821c-11.528,-46.138 -11.528,-92.3 -17.293,-144.202c-5.764,-23.057 -11.528,-40.374 -11.528,-63.43c0,-28.845 0,-63.455 5.764,-92.3c0,-40.374 17.293,-74.983 23.057,-121.121c11.528,-40.374 17.293,-86.511 40.374,-126.885c0,-11.553 11.553,-23.081 11.553,-40.374c23.057,-40.374 28.821,-80.747 51.902,-121.121c17.293,-34.609 46.138,-69.219 57.666,-103.828c11.528,-28.821 34.609,-51.902 51.926,-80.747c17.293,-17.293 34.609,-40.374 57.666,-51.926l34.609,-34.609c40.374,-23.057 69.195,-63.43 109.592,-86.511c23.057,-5.764 34.609,-23.081 51.902,-28.845c28.821,-23.057 57.666,-34.609 86.511,-46.138c40.374,-17.293 74.983,-46.138 121.121,-51.902c34.609,-11.528 69.219,-17.293 98.064,-23.081l69.195,-17.293c28.821,0 57.666,-5.764 86.511,-11.528c46.138,-5.764 92.276,-5.764 138.413,-11.553c28.821,5.764 63.455,5.764 92.276,5.764l57.715,11.553c17.268,-5.764 34.585,0 51.902,5.764c57.666,5.764 109.592,17.293 155.73,40.374c28.845,17.293 57.666,28.845 86.511,46.138c57.666,17.317 109.592,57.69 161.494,98.064c23.081,23.081 46.114,40.374 69.195,63.43l126.909,126.885c11.504,23.081 28.797,46.138 40.349,63.455c23.081,34.609 51.902,69.219 69.195,103.828c34.634,63.455 51.902,132.649 69.195,201.868c34.634,86.511 34.634,190.315 34.634,288.379c-5.74,40.374 -5.74,86.511 -11.504,132.649Z" style="fill:#fff;"/><path d="M885.88,331.358c0,17.293 0,34.609 -5.764,51.926c-5.764,5.764 -11.528,11.528 -17.293,11.528c0,-5.764 -5.764,0 -5.764,-5.764c0,-5.764 -5.764,-11.553 -17.317,-17.317c-5.764,0 -17.293,0 -23.057,5.764c-5.764,11.553 0,17.293 0,23.057c23.057,23.081 51.902,0 80.747,-5.764c5.764,5.764 17.293,11.528 23.081,17.293c17.293,17.317 23.057,34.609 17.293,57.666c-11.553,23.081 -34.609,51.902 -63.455,46.138c-5.764,5.764 -17.293,-5.764 -23.081,0c0,5.764 0,11.528 -5.764,17.293c-5.764,0 -11.528,0 -17.293,-5.764c-5.764,-5.764 5.764,-17.293 0,-28.821c0,-11.553 -11.528,-23.081 5.764,-34.609c11.528,0 23.081,11.528 40.374,23.057c11.528,0 23.081,-5.764 28.821,-17.293l0,-17.293c-5.764,-5.764 -11.528,-11.528 -17.293,-11.528c-17.293,5.764 -28.821,17.293 -46.138,17.293c-17.293,0 -34.609,-5.764 -46.138,-23.081c-5.764,-17.293 -17.293,-34.609 -11.528,-51.902c5.764,-11.553 23.057,-28.845 34.609,-34.609c11.528,-5.764 23.057,0 34.609,0c17.268,0.048 17.268,-28.797 34.585,-17.268Zm853.609,63.455c5.764,5.764 5.764,17.293 17.268,23.081c5.764,0 11.553,-5.764 17.317,5.764c-5.764,11.528 -23.033,17.293 -28.797,23.057l-23.081,17.317c0,0 -5.764,0 -5.764,-5.764c-5.764,-11.553 11.553,-23.081 5.764,-34.609c-5.764,-5.764 -11.553,-17.317 -17.317,-17.317c-5.764,0 -11.553,0 -17.317,5.764c-11.504,23.081 11.553,34.609 17.317,51.926c5.764,5.764 11.553,17.293 17.317,28.821c0,17.293 -5.764,34.609 -17.317,46.138c-17.317,11.528 -40.349,17.293 -63.43,11.528c-11.553,-5.764 -23.081,-11.528 -34.634,-23.081l-11.553,-17.293c-5.716,-5.764 -17.268,0 -23.033,-5.764c0,-5.764 0,-11.553 5.764,-17.317l28.797,-34.609l11.553,0c5.764,0 5.764,5.764 5.764,11.553c0,11.528 -11.553,17.293 -11.553,28.821c0,11.553 17.317,23.081 23.081,28.821l23.081,0c11.553,-5.764 17.317,-17.293 11.553,-23.057c0,-17.293 -23.081,-28.845 -28.845,-46.138c0,-17.293 -5.764,-34.609 5.764,-46.138c17.317,-23.057 40.349,-28.821 69.195,-28.821c5.788,5.788 17.341,11.553 23.105,17.317Zm-1067.006,51.902c0,17.317 -11.528,28.845 0,40.374c11.528,23.081 34.609,40.374 40.374,63.455c11.528,5.764 11.528,17.293 23.081,23.081c11.528,5.764 28.821,-11.553 28.821,5.764c0,11.553 -17.293,11.553 -23.081,17.293c-11.528,11.528 -28.821,23.081 -34.609,34.609c0,5.764 -5.764,5.764 -11.528,5.764c-5.764,-17.293 5.764,-34.609 0,-46.138c-5.764,-11.553 -17.317,-17.317 -17.317,-28.845c-18.163,-23.927 -39.503,-45.267 -63.43,-63.43c-5.764,0 -17.317,5.764 -23.081,0c0,-5.764 5.764,-11.553 11.553,-17.293c17.317,-11.553 34.609,-23.081 51.926,-40.374c5.764,-0.024 11.504,-0.024 17.293,5.74Zm1130.436,51.926c11.553,5.764 11.553,17.293 11.553,34.609c0,11.553 -17.317,23.081 -28.845,23.081c-11.528,0 -28.845,0 -34.585,-11.528c-5.764,-11.553 0,-28.845 5.716,-34.609c5.764,-11.528 11.553,-17.293 17.317,-17.293c11.553,-0.048 23.081,-0.048 28.845,5.74Zm-1274.638,86.511l0,17.293c-5.764,0 -11.553,5.764 -17.293,5.764c-5.764,-5.764 -5.764,-11.528 -11.528,-5.764c-5.764,5.764 -5.764,11.528 -5.764,11.528c5.764,5.764 11.528,5.764 17.293,5.764c23.081,0 34.609,-28.821 57.666,-23.081c11.528,0 23.057,11.528 28.821,11.528c11.553,17.317 34.609,23.081 34.609,46.138c0,11.553 5.764,23.081 0,34.609c-11.528,11.553 -23.081,34.609 -46.138,40.374c0,0 -5.764,-5.764 -11.528,0c-5.764,5.764 0,17.317 -11.553,17.317c-11.528,5.764 -17.293,-11.553 -23.081,-23.081c-5.764,-5.764 -5.764,-17.293 -11.528,-28.821c0,-5.764 5.764,-5.764 5.764,-5.764c23.081,0 46.138,23.081 63.43,0c5.764,-5.764 5.764,-11.528 5.764,-17.293c-5.764,-11.528 -11.553,-23.081 -23.081,-23.081c-28.821,0 -46.138,17.317 -69.195,23.081c-17.293,0 -34.609,-11.528 -46.138,-23.081c-5.764,-16.817 -5.764,-35.085 0,-51.902c5.764,-11.528 23.081,-11.528 23.081,-28.845c5.764,0 5.764,-11.528 11.553,-5.764c17.293,0 17.293,17.317 28.845,23.081Zm801.707,23.057c0,11.553 0,23.081 -5.764,40.374l-5.764,0c-17.317,0 -11.553,-28.821 -34.634,-28.821c-17.293,23.081 -11.528,57.666 -11.528,86.511c5.764,5.764 5.764,17.293 17.293,23.057c0,5.764 0,5.764 -5.764,11.553c-11.528,0 -17.293,-5.764 -28.821,-5.764c-11.553,0 -28.845,0 -40.374,-5.764l0,-5.764c28.821,-17.293 23.057,-51.902 23.057,-80.723c0,-5.764 0,-11.553 -5.764,-11.553c-11.528,-5.764 -17.293,5.764 -28.845,5.764c0,5.764 -5.764,5.764 -11.528,0c-5.764,-5.764 0,-11.528 0,-23.081c0,-5.764 0,-11.528 5.764,-11.528c28.821,-5.764 63.455,0 92.276,-5.764c11.553,5.74 34.634,-0.024 40.398,11.504Zm144.177,28.845c5.764,5.764 11.553,5.764 17.317,11.528c0,17.317 -23.081,5.764 -28.845,17.317c-5.764,28.821 -34.585,57.666 -11.553,92.276c0,0 0,5.764 -5.764,5.764c-11.553,0 -23.033,-5.764 -28.797,-11.528c-11.553,-5.764 -23.081,-5.764 -28.845,-11.528c0,-11.553 11.553,-11.553 23.081,-17.317c17.317,-5.764 17.317,-28.821 23.033,-40.374c0,-11.528 5.764,-23.057 5.764,-34.609c-5.764,-5.764 -17.268,-11.528 -11.504,-17.293c5.716,-11.528 17.268,-5.764 23.033,-5.764c5.764,11.528 17.317,5.764 23.081,11.528Zm513.328,-40.374c-5.764,-5.764 -11.553,-5.764 -17.317,-5.764c-40.398,11.528 -80.747,34.609 -121.145,46.138c-11.504,0 -23.033,5.764 -34.585,0c-5.764,0 -11.553,-5.764 -17.317,0l0,11.528c17.317,11.553 34.634,28.845 46.114,34.609c5.764,-5.764 5.764,-11.528 11.553,-17.293c23.081,0 34.634,17.293 46.162,34.609l0,17.293c-5.764,5.764 -11.553,5.764 -17.317,5.764c0,0 -5.764,-5.764 -11.553,0l0,5.764c11.553,5.764 23.081,17.317 28.845,28.845c5.764,5.764 11.553,17.293 17.268,17.293c5.764,-5.764 5.764,-17.293 5.764,-23.081c0,-28.845 17.317,-51.902 23.081,-80.747c5.837,-23.057 34.682,-46.114 40.446,-74.959Zm-69.243,74.983c-11.504,0 -23.033,-11.528 -23.033,-23.081c5.764,-5.764 17.317,-5.764 23.033,-11.528c11.553,0 11.553,5.764 11.553,11.528c0,11.553 -5.788,17.317 -11.553,23.081Zm-847.821,23.057c-11.528,-11.553 -17.293,-28.821 -34.609,-40.374l-17.317,-17.293c-5.764,0 -17.293,-5.764 -23.057,0c-17.293,11.528 -5.764,34.609 0,46.138l-5.764,51.926c0,11.553 -5.764,28.821 -11.528,46.138c5.764,5.764 23.057,0 28.821,0c5.764,-5.764 17.293,-11.553 17.293,-17.317c0,-5.764 -5.764,-5.764 -5.764,-5.764c-5.764,0 -5.764,-5.764 -5.764,-11.528c0,-5.764 11.528,-11.553 17.293,-17.317c5.764,-5.764 17.293,-11.528 23.081,-5.764c5.764,0 5.764,11.553 5.764,11.553c0,11.553 -11.553,23.081 0,23.081c17.293,-5.764 28.821,-11.528 46.138,-17.293l0,-5.764c-11.504,-11.577 -23.033,-23.105 -34.585,-40.422Zm-34.585,5.788c-5.764,5.764 -11.553,5.764 -17.317,5.764c-5.764,-11.553 -11.528,-28.845 -5.764,-40.374c17.293,-5.764 17.293,17.293 23.081,23.057c5.74,5.764 5.74,11.553 0,11.553Zm-628.685,-5.788c0,5.764 -5.764,11.553 -5.764,23.081c5.764,17.293 23.081,34.609 40.374,40.374c28.845,17.293 57.69,40.374 92.3,57.666l0,11.553c-11.553,11.528 -34.609,5.764 -57.69,5.764c-28.821,0 -63.43,5.764 -86.511,11.528c5.764,11.553 17.293,23.081 28.845,23.081c11.528,11.528 23.057,17.293 40.374,17.293c5.764,0 11.528,-11.528 17.293,-11.528c5.764,5.764 5.764,11.528 5.764,11.528c-17.293,23.081 -23.057,51.926 -34.609,74.983c-5.764,5.764 -11.553,5.764 -11.553,5.764c-5.764,-11.553 0,-17.317 0,-28.845c0,-17.293 -23.057,-28.821 -34.609,-34.609c-23.081,-17.317 -46.138,-28.845 -74.983,-28.845c-11.553,0 -11.553,11.528 -23.081,11.528c-11.528,-5.764 -5.764,-17.293 -5.764,-23.057c11.528,-17.317 23.057,-34.609 40.374,-40.374c34.609,-11.553 63.43,-17.293 98.04,-11.553c5.764,-5.764 11.553,0 17.317,-5.764c-11.553,-11.553 -28.845,-23.081 -40.374,-28.845c-11.553,-5.764 -23.081,-11.553 -34.609,-11.553c-5.764,0 -5.764,5.764 -17.293,5.764c0,-5.764 -5.764,-5.764 -5.764,-11.528c0,-5.764 5.764,-5.764 5.764,-11.528c11.553,-23.081 11.553,-46.138 28.845,-57.69c5.788,0.048 11.553,0.048 17.317,5.813Zm1234.264,51.926c0,-5.764 0,-23.081 -11.553,-23.081c-11.553,5.764 -28.845,17.317 -40.349,28.845c-17.317,17.293 -34.634,28.845 -57.715,40.374c-5.764,5.764 -11.553,0 -23.033,5.764l5.764,5.764c5.716,0 11.504,5.764 17.268,11.528c11.553,0 17.317,17.293 28.845,5.764c0,-5.764 -5.764,-11.553 -5.764,-11.553c23.081,-11.528 34.634,11.553 51.902,23.081c0,0 5.764,5.764 5.764,11.528c-11.553,0 -17.317,0 -23.033,-5.764l-5.764,5.764c0,11.553 11.504,17.317 23.033,23.081c0,5.764 11.553,11.528 23.081,17.293c5.764,-5.764 5.764,-5.764 5.764,-11.528c-5.764,-17.293 -5.764,-46.138 0,-63.455c5.764,-5.764 0,-11.528 5.764,-17.293c-5.74,-17.293 5.813,-28.821 0.024,-46.114Zm-28.845,46.138c-5.764,0 -11.553,0 -17.317,-5.764c-5.716,0 0,-5.764 0,-11.528c5.764,-5.764 17.317,-11.553 23.081,-17.293c0,11.504 5.788,28.797 -5.764,34.585Zm484.483,-23.081c0,0 5.764,0 11.553,5.764c11.553,11.528 34.634,23.081 34.634,40.374c-5.764,17.293 -11.553,28.821 -23.081,34.609c-11.553,0 -23.081,5.764 -34.634,0c0,-5.764 -5.764,-11.528 0,-17.293c5.764,-5.764 23.081,0 28.845,-11.528c0,-11.553 -5.764,-23.081 -17.317,-23.081c-11.553,-11.553 -28.797,-5.764 -46.114,0l-34.634,17.293c-11.553,11.553 -17.317,23.081 -11.553,34.609c0,5.764 0,17.317 5.764,17.317c11.553,11.528 34.634,5.764 40.398,17.293c0,11.553 -11.553,11.553 -17.317,17.317c-11.553,0 -34.634,0 -46.114,-5.764c-5.764,-17.293 -28.845,-28.821 -23.081,-46.138c-5.764,-40.374 34.585,-69.195 63.43,-86.511c23.105,-5.788 46.186,-5.788 69.219,5.74Zm-1193.89,23.081c-5.764,-5.764 -11.528,0 -17.293,5.764c-5.764,5.764 -5.764,11.528 -5.764,17.293c0,5.764 -5.764,11.553 -11.528,17.293c-5.764,0 -17.293,0 -17.293,-5.764c-11.553,-17.317 0,-40.374 -11.553,-51.926c-11.528,-5.764 -23.057,-17.293 -34.609,-17.293c-17.293,0 -34.609,5.764 -40.374,23.081c-11.553,17.293 -28.821,17.293 -46.138,28.821c0,5.764 5.764,11.553 5.764,11.553c11.553,0 23.081,5.764 28.821,11.528c11.553,17.293 23.081,34.609 34.609,46.138c11.528,11.528 0,28.845 11.528,40.374l11.553,0l34.609,-28.845c5.764,-11.528 0,-11.528 -5.764,-17.293c-5.764,-5.764 -11.528,0 -17.293,-5.764c23.057,-11.553 46.138,-5.764 63.43,-11.553c12.282,-6.493 22.328,-16.539 28.821,-28.821c0,-11.528 0,-28.821 -11.528,-34.585Zm-98.04,34.609c-11.528,0 -17.293,-17.317 -28.821,-23.081l11.528,-11.553c11.528,0 17.293,5.764 23.081,11.553c-0.024,5.764 -0.024,11.528 -5.788,23.081Zm997.787,57.666c17.317,11.553 23.081,28.845 28.845,46.138c5.764,5.764 11.504,17.293 5.764,23.081c-5.764,5.764 -17.317,5.764 -23.081,5.764c-5.764,0 0,-5.764 0,-5.764c-5.764,-17.293 -5.764,-34.609 -23.081,-34.609c0,5.764 -23.081,5.764 -17.317,23.081c5.764,5.764 11.553,5.764 11.553,11.528c0,11.553 -5.764,11.553 -11.553,17.293l-5.764,0c-5.764,-11.528 -17.268,-17.293 -17.268,-23.081c0,-5.764 -5.764,-5.764 -5.764,-5.764c-5.764,11.528 -17.317,11.528 -11.553,23.081c5.764,11.528 5.764,23.081 17.317,28.821l17.268,0c5.764,0 17.317,-5.764 23.081,5.764c0,5.764 -5.764,5.764 -11.553,11.553c-11.553,0 -28.797,11.553 -40.349,5.764c-17.317,-17.317 -17.317,-34.609 -28.845,-46.138l0,-5.764c-11.553,-11.553 -23.081,-17.317 -34.585,-23.081l0,-11.553c5.716,-11.528 17.268,0 28.797,-5.764c17.317,-5.764 40.398,-17.293 57.666,-28.821c5.764,0 11.553,-11.553 17.317,-17.293c0,-5.764 -5.764,-11.528 0,-17.293c0,-5.764 5.764,-5.764 5.764,-5.764c11.577,11.528 11.577,23.057 17.341,28.821Zm-801.707,17.317c0,0 5.764,0 5.764,5.764c0,5.764 -5.764,5.764 -11.528,5.764c-5.764,0 -23.081,5.764 -34.609,0c0,-5.764 -5.764,-11.528 0,-11.528c11.553,-11.553 28.845,0 40.374,0Zm-334.517,28.821c5.764,17.293 -5.764,23.081 -17.293,28.845c-5.764,11.528 -5.764,28.845 0,40.374c5.764,11.553 11.553,23.081 28.821,28.845l23.081,-5.764c5.764,-5.764 11.553,-11.553 11.553,-17.317c-11.553,-5.764 -23.081,0 -28.845,-11.528c0,-11.528 5.764,-23.081 11.553,-28.821c11.528,0 28.821,0 40.374,5.764c0,5.764 11.528,5.764 11.528,11.553l0,5.764c-5.764,17.293 -5.764,34.609 -11.528,51.902c-11.553,11.528 -28.845,11.528 -40.374,23.081c-11.553,5.764 -23.081,0 -34.609,0c-11.553,-17.317 -40.374,-23.081 -40.374,-46.138c-17.317,-28.821 -5.764,-63.455 11.528,-86.511c11.528,-5.813 28.845,-11.577 34.585,-0.048Zm582.547,23.081c5.764,11.553 -5.764,23.081 -11.553,34.609l-5.764,0c-5.764,-5.764 -5.764,-17.317 -5.764,-28.845c-5.764,-5.764 -11.528,-17.293 -11.528,-23.081l5.764,-5.764c17.293,0 23.057,11.553 28.845,23.081Zm-63.455,-17.317c11.553,5.764 11.553,17.293 11.553,28.845c-5.764,0 -11.553,5.764 -17.317,0c-5.764,-5.764 -5.764,-17.317 -17.293,-17.317c0,0 -5.764,0 -11.528,-5.764l0,-5.764c11.528,-5.764 23.081,-5.764 34.609,-5.764l0,5.764l-0.024,0Zm109.568,5.788c5.764,5.764 5.764,17.293 5.764,23.081c0,5.764 -5.764,17.293 -11.553,17.293c-5.788,0 0,-11.553 -11.528,-17.293c-5.764,0 -5.764,11.528 -17.293,5.764l0,-17.293c0,-5.764 5.764,-11.528 17.293,-17.293c5.788,-0.048 11.553,5.74 17.317,5.74Zm-132.649,17.293c0,5.764 -5.764,5.764 -5.764,11.528c-5.764,5.764 -5.764,23.081 -17.293,17.317c-11.553,-11.553 5.764,-23.081 5.764,-34.609c5.764,0 17.293,-5.788 17.293,5.764Zm-138.413,11.528c5.764,0 5.764,5.764 5.764,5.764c-5.764,5.764 -11.553,5.764 -17.293,5.764c-11.553,5.764 -28.821,0 -40.374,5.764c-28.845,-5.764 -57.69,0 -86.511,0c-5.764,0 -5.764,0 -11.528,-5.764c0,0 0,-5.764 5.764,-5.764c23.081,-5.764 46.138,-5.764 69.219,-5.764l34.609,0c11.528,0 28.821,-5.764 40.349,0Zm-738.253,23.081c5.764,11.528 23.081,5.764 23.081,23.081c-5.764,5.764 -17.293,0 -23.081,5.764c-11.553,5.764 -28.821,11.528 -28.821,28.821c0,5.764 5.764,11.553 11.528,11.553c5.764,5.764 23.081,11.528 28.845,0c0,-5.764 -11.553,-11.553 -5.764,-17.317c0,-5.764 5.764,-5.764 5.764,-11.528c5.764,0 11.528,5.764 23.057,5.764c5.764,0 23.081,-5.764 28.845,5.764c0,11.553 -17.293,17.317 -28.845,28.845l5.764,0c17.317,0 34.609,5.764 51.902,11.528l0,-40.374c5.764,-17.293 -23.081,-28.821 -17.293,-46.138c0,-5.764 5.764,-5.764 11.553,-5.764c17.293,5.764 28.821,23.081 34.609,34.609c17.293,17.293 5.764,34.609 -5.764,51.902c-5.764,23.081 0,51.902 -11.528,69.195l0,17.293c-5.764,5.764 -11.553,5.764 -11.553,5.764c-17.293,-11.553 -17.293,-34.609 -40.374,-40.374c-23.081,-11.528 -51.926,-17.293 -80.747,-23.081c-17.317,-5.764 -17.317,23.081 -34.609,17.293c-11.528,-17.293 -5.764,-40.374 -5.764,-57.666c5.764,-28.845 17.317,-46.138 23.081,-74.983c5.764,0 11.553,0 11.553,-5.764c11.48,0.048 23.008,5.813 34.561,5.813Zm795.943,0c5.764,5.764 5.764,5.764 0,5.764c-11.553,11.553 -28.845,5.764 -40.374,11.553c-23.081,0 -46.138,5.764 -69.195,5.764c-5.764,0 -5.764,-5.764 -5.764,-11.553c5.764,-5.764 17.317,0 28.845,-5.764c28.797,-5.764 57.642,-5.764 86.487,-5.764Zm11.528,23.057l-5.764,5.764c-17.293,11.528 -40.374,28.821 -69.219,34.609c-5.764,0 -11.528,-5.764 -11.528,-11.553l0,-5.764c28.845,-5.764 51.926,-17.293 74.983,-28.845c0,0.024 5.764,0.024 11.528,5.788Zm1141.964,5.788c-5.716,-5.764 -11.504,-11.553 -17.268,-11.553c-11.553,5.764 -28.845,0 -46.162,0c-5.764,-5.764 -11.553,0 -17.268,0c-23.081,-11.553 -51.95,-5.764 -75.031,-17.293l-23.033,-23.081l0,-5.764c-5.764,-5.764 -11.553,-5.764 -17.317,0c0,5.764 -11.553,17.293 0,28.821c11.553,11.528 11.553,28.845 17.317,40.374c0,5.764 5.764,5.764 11.553,5.764c5.788,0 5.764,-5.764 5.764,-11.528l5.716,-5.764c11.553,0 17.317,5.764 23.081,11.528c5.764,5.764 0,23.081 0,34.609c0,5.764 5.764,11.528 5.764,23.057c-5.764,5.764 -5.764,5.764 -11.553,5.764c-11.553,0 -11.553,-11.553 -23.033,-11.553c-5.764,0 -5.764,5.764 -5.764,11.553c5.764,11.528 5.764,23.081 11.504,28.821c0,11.553 -5.716,23.081 0,34.609c0,5.764 5.764,11.553 11.553,11.553c17.317,-17.293 23.081,-34.609 34.634,-51.902c11.553,-17.293 34.585,-28.845 51.902,-46.138c11.553,-5.764 23.081,-23.081 34.634,-28.845c5.764,-5.764 11.553,-5.764 17.317,-11.528c5.692,0.024 5.692,-5.74 5.692,-11.504Zm-98.016,40.374c-5.764,0 -5.764,-5.764 -5.764,-5.764l-5.764,-23.081c11.553,-11.528 23.081,-5.764 34.585,0c-0.024,11.528 -11.528,23.057 -23.057,28.845Zm-680.611,173.023c5.764,5.764 -5.764,11.528 0,23.081c0,5.764 0,11.528 -5.764,17.293c-11.553,0 -17.317,-17.293 -34.585,-11.528l0,5.764c-5.764,23.081 -11.553,46.138 -11.553,69.219c0,11.553 11.553,11.553 11.553,17.293c0,5.74 0,11.528 -5.764,11.528c-5.764,0 -11.553,0 -17.317,-5.764c-11.553,5.764 -23.081,11.553 -34.634,5.764c-5.716,0 -5.716,-5.764 -5.716,-11.528c5.716,-5.764 17.268,-11.528 17.268,-23.081c0,-23.081 5.764,-46.138 0,-69.195c-5.764,-5.764 -11.553,0 -17.268,0c-5.764,0 -5.764,17.293 -17.317,17.293l-5.764,-5.764l0,-40.374l109.544,0c5.788,0 11.553,-5.764 17.317,0Zm340.305,11.528l0,28.845c-5.764,5.764 -11.553,0 -17.317,0c-5.764,0 0,-5.764 -5.764,-5.764c0,-11.528 -5.764,-11.528 -17.317,-11.528c0,0 -5.716,0 -5.716,5.764c0,28.821 34.585,17.293 40.349,40.374c11.553,17.293 5.764,40.374 -5.764,51.902c-11.528,11.528 -40.349,11.528 -63.43,5.764c-5.764,0 -17.317,11.553 -28.845,0l0,-11.528c5.764,-11.553 17.317,-17.317 23.081,-28.845l5.764,0c5.764,17.317 17.317,34.609 34.585,28.845c5.764,0 17.317,0 17.317,-5.764c5.764,-5.764 0,-11.553 0,-17.293c-11.553,-17.317 -40.349,-17.317 -51.902,-34.609c0,-17.293 0,-34.609 11.553,-46.138c17.317,-11.528 40.349,-17.293 57.666,-5.764l5.74,5.74Zm-888.219,-5.764l0,34.609c0,5.764 -11.528,5.764 -11.528,0c-11.553,0 -5.764,-11.528 -17.317,-11.528c-5.764,0 -11.528,0 -17.293,5.764c-5.764,0 -5.764,5.764 -5.764,11.553c0,5.764 5.764,0 11.528,0c11.528,11.528 17.293,17.293 11.528,28.821c0,11.528 -11.528,17.317 -23.057,17.317c-5.764,5.764 0,17.293 5.764,23.081c23.081,5.764 34.609,-17.317 51.902,-23.081c5.788,0 5.788,0 5.788,5.764c0,11.553 0,23.081 -11.553,28.821c-28.845,11.553 -63.455,5.764 -98.04,5.764c-5.764,0 -5.764,-5.764 -5.764,-11.528c23.081,-23.081 11.553,-57.666 11.553,-86.511l0,-23.081l5.764,-5.764l86.487,0Zm346.07,5.764l0,11.553c-5.764,0 -11.553,5.764 -17.317,11.528c5.764,23.081 -5.764,40.374 -5.764,63.455c5.764,5.764 17.293,5.764 17.293,11.553c5.764,11.528 0,17.293 -5.764,17.293c-11.528,5.764 -28.821,5.764 -40.374,5.764c-5.764,5.764 -17.293,5.764 -23.081,0c-5.764,-5.764 -5.764,-11.528 -5.764,-17.293c5.764,-11.553 17.293,-5.764 23.081,-11.553c5.764,-23.081 5.764,-46.138 5.764,-69.219c0,-5.764 -11.528,-5.764 -17.293,-11.528c-5.764,-5.764 -5.764,-11.553 -5.764,-11.553c23.081,-5.764 46.138,-11.528 69.219,-5.764c5.764,0 5.764,5.764 5.764,5.764Zm-576.783,0c0,5.764 0,11.553 -5.764,11.553l-5.764,5.764c0,17.293 5.764,28.821 11.528,40.374c5.764,5.764 11.553,0 17.317,-5.764l28.821,-51.926c11.553,-11.528 28.821,-5.764 34.609,-5.764c5.764,5.764 5.764,5.764 5.764,11.528c-28.821,34.609 -57.666,74.983 -80.747,109.568c-5.764,0 -11.528,0 -11.528,-5.764l0,-11.528l-34.609,-74.983c-5.764,-5.764 -11.528,-5.764 -11.528,-5.764c-5.764,-5.764 -5.764,-11.553 -5.764,-17.317c5.764,-5.764 11.528,-5.764 23.057,-5.764c11.553,0.024 28.869,-5.74 34.609,5.788Zm-455.638,11.528c28.845,11.528 57.666,5.764 86.511,5.764c17.293,0 34.609,5.764 46.138,-11.553c0,0 0,-5.764 5.764,-5.764c5.764,0 11.553,-5.764 17.293,0l0,5.764c0,23.081 -5.764,46.138 0,69.195c0,5.788 0,11.553 -5.764,17.317c-11.553,0 -17.317,-23.081 -34.609,-23.081c-23.081,-5.764 -57.69,-5.764 -86.511,-5.764c-17.293,0 -28.845,11.528 -40.374,23.081l-11.553,0l0,-11.553c0,-17.293 -11.528,-40.374 -5.764,-57.666c0,-11.553 0,-17.317 11.528,-23.081c11.577,0.048 11.577,17.341 17.341,17.341Zm2041.735,-46.138c-11.553,-17.293 -11.553,5.764 -17.317,11.553c-17.268,5.764 -34.585,5.764 -46.114,5.764c-28.845,-11.553 -51.902,5.764 -80.747,0c-5.764,0 -11.553,0 -17.317,-5.764c0,-5.764 -5.764,-11.553 -11.553,-11.553c-5.788,0 -5.764,0 -5.764,5.764c5.764,17.293 5.764,40.374 5.764,63.455c0,17.293 17.317,23.081 17.317,34.609c5.764,11.553 11.553,17.293 23.081,23.081c11.553,11.553 34.585,11.553 51.902,11.553c17.317,-5.764 34.634,-11.553 51.902,-23.081l17.317,-23.081c0,0 0,-11.553 5.764,-17.317c0,-11.528 11.553,-23.057 5.764,-40.374c0,-11.528 5.764,-23.057 0,-34.609Zm-34.585,80.747c-17.317,23.081 -57.715,17.293 -86.511,17.293c-11.553,-5.764 -23.081,-11.528 -23.081,-23.081c-5.764,-5.764 -5.764,-11.528 0,-11.528c11.553,-11.528 28.845,-11.528 46.114,-5.764c11.553,0 28.845,5.764 40.398,0c5.764,0 17.317,0 23.081,5.764c0,5.788 5.74,11.553 0,17.317Zm-1101.615,28.821c-11.553,0 -11.553,17.317 -17.293,23.081c-11.528,-5.764 -28.821,-5.764 -34.609,-17.293c0,-17.317 17.317,-28.845 11.553,-46.138c0,-17.293 -5.764,-34.609 -23.081,-40.374c-17.293,-5.764 -40.374,0 -57.666,-5.764c-11.528,5.764 -17.293,5.764 -23.057,11.528c0,5.764 0,11.553 5.764,17.317c5.764,23.057 0,51.902 0,74.983c0,11.553 -11.528,17.293 -5.764,23.057c5.764,11.553 17.293,0 28.821,5.764l11.528,0c5.764,-5.764 5.764,-17.293 5.764,-23.057c0,-11.553 11.528,-5.764 17.293,-5.764c17.293,5.764 28.821,23.057 46.138,28.821c11.528,0 23.057,5.764 34.609,-5.764c5.764,-11.528 17.317,-23.057 11.553,-34.585c-0.024,-5.813 -5.788,-11.553 -11.553,-5.813Zm-80.747,-28.821c0,11.553 -11.528,11.553 -17.293,11.553c-5.764,-5.764 0,-11.553 -5.764,-17.317l0,-11.528c11.553,-5.764 23.081,-5.764 28.845,0c-0.024,5.764 -0.024,17.293 -5.788,17.293Zm594.051,57.69c-17.317,-34.609 -40.398,-63.455 -51.902,-98.064c0,-5.764 -5.764,-11.528 -11.553,-11.528c-5.788,0 -11.553,0 -11.553,5.764c-5.764,40.374 -28.845,69.219 -51.902,103.828l-17.317,17.293l0,5.764l51.902,0c0,0 5.764,0 5.764,-5.764c0,-5.764 -5.764,-5.764 -5.764,-5.764c-5.764,0 0,-5.764 0,-5.764c5.764,-11.528 17.317,-17.293 34.634,-11.528c5.764,0 23.033,0 23.033,11.528c0,5.764 -5.764,0 -11.553,0c0,5.764 -5.716,5.764 -5.716,11.528c0,5.764 5.716,11.553 11.504,11.553c17.317,-5.764 34.634,-5.764 51.95,-11.553c0.024,-5.788 -5.74,-11.528 -11.528,-17.293Zm-51.878,-46.138c-5.764,5.764 -11.553,5.764 -17.317,5.764c-5.764,0 -5.764,-11.528 -5.764,-17.293c0,-5.764 5.764,-11.528 11.553,-11.528c5.788,0 11.553,0 11.553,5.764l-0.024,17.293Zm-1222.76,109.568c5.764,0 17.293,0 17.293,5.764c0,11.528 5.764,23.081 5.764,34.609c5.764,23.081 5.764,51.926 17.293,69.195c5.764,5.764 11.553,17.317 11.553,23.081c-5.764,5.764 -5.764,11.528 -11.553,11.528c-23.081,0 -40.374,-5.764 -63.43,-5.764c-23.081,11.528 -40.374,17.293 -69.219,17.293c0,0 -5.764,0 -5.764,5.764c0,5.764 0,11.528 -5.764,17.293c-11.528,0 -11.528,-11.528 -17.293,-17.293c-11.528,-23.057 -28.845,-40.374 -23.081,-63.455c5.764,-5.764 5.764,-5.764 11.553,-5.764c11.528,0 17.293,17.293 34.609,11.528l40.374,0c17.293,-11.528 40.374,-5.764 57.666,-23.081c0,-34.609 -28.821,-51.902 -51.926,-74.983c0,-11.553 11.553,-5.764 11.553,-11.553c17.317,0.073 28.821,5.837 40.374,5.837Zm1736.039,34.609c28.845,17.317 63.43,17.317 92.3,23.081c11.553,0 28.845,11.528 34.634,0c5.716,-5.764 5.716,-11.528 11.504,-17.293c5.764,0 11.553,5.764 17.317,11.553c-5.764,11.528 -11.553,28.821 -17.317,40.374c-5.764,23.057 -17.268,46.138 -17.268,69.195c0,5.764 -5.764,11.528 -11.553,11.528c-11.553,0 -28.845,0 -40.398,-5.764c-5.764,0 -11.553,-5.764 -5.764,-11.553c11.553,-17.293 34.634,-17.293 46.162,-34.609c-5.764,-17.293 -23.081,-17.293 -34.634,-23.081c-5.764,11.528 11.553,23.081 -5.764,28.845c-11.553,0 -23.033,-11.553 -34.585,-11.553c-5.764,0 -5.764,0 -11.553,-5.764c0,-5.764 0,-11.528 5.764,-17.293c5.764,0 5.764,0 5.764,-5.764c0,-5.764 0,-11.553 -5.764,-11.553c-17.317,-5.764 -34.634,0 -40.398,11.553c-5.764,17.293 -11.553,40.374 5.764,57.666c0,0 0,5.764 -5.764,5.764l-5.764,0l-34.585,-23.081c-5.764,-5.764 0,-17.317 0,-23.081c5.764,-23.081 11.553,-46.138 23.081,-63.455c0,-11.528 5.716,-23.081 11.504,-28.821c17.317,0.048 5.788,17.341 17.317,23.105Zm-1349.621,138.413l0,5.764c-11.528,23.081 -17.293,40.374 -17.293,69.219l5.764,0c17.293,-5.764 23.081,-17.317 40.374,-23.081l17.293,17.293c5.764,11.553 17.317,17.293 11.553,28.821c-11.553,5.764 -11.553,-5.764 -23.081,-5.764c-17.293,5.764 -34.609,17.293 -51.902,28.845c-5.764,11.528 -23.081,17.293 -34.609,23.057c0,0 -11.528,0 -11.528,-5.764c0,-28.821 17.293,-51.902 11.528,-80.747c0,-5.764 -5.764,-5.764 -11.528,-5.764c-11.553,11.528 -28.821,28.845 -34.609,46.138c-5.764,0 -5.764,0 -11.553,-5.764c-5.764,-5.764 -5.764,-17.293 -11.528,-23.081c0,-5.764 -5.764,-11.553 -5.764,-17.293c17.293,0 34.609,-11.528 51.902,-17.293c11.553,-11.553 28.845,-11.553 40.374,-28.845c0,0 5.764,-5.764 5.764,-11.528c5.764,-5.764 -5.764,-5.764 0,-11.553l11.553,0l17.293,17.341Zm1020.868,5.764c0,5.764 5.764,11.553 0,11.553c-11.553,5.764 -28.797,5.764 -40.349,17.293c-5.764,5.764 -11.553,5.764 -17.317,17.293c5.764,5.764 17.317,11.528 28.845,11.528c11.504,-5.764 -5.764,-23.057 11.504,-23.057c11.553,0 23.081,11.528 28.845,23.057l0,5.764c-5.764,5.764 -17.317,0 -17.317,5.764c0,5.764 -5.764,11.528 0,17.293c5.764,5.764 11.553,5.764 17.317,5.764c11.553,-5.764 11.553,-11.528 17.317,-17.293c5.764,-17.317 -5.764,-23.081 -11.553,-34.609c0,0 0,-5.764 5.764,-11.528c17.317,5.764 28.845,23.057 46.114,28.821c0,5.764 -5.716,5.764 -5.716,11.553c-23.081,28.821 -40.398,57.666 -69.243,86.511l-11.553,0c-5.716,-5.764 0,-11.528 0,-23.081c-5.716,-17.293 -23.033,-40.374 -46.114,-51.902c-11.553,-5.764 -23.081,5.764 -28.845,11.528c-5.716,5.764 -11.504,5.764 -17.268,0c-5.764,0 -5.764,-5.764 -5.764,-11.528c5.764,-11.528 23.033,-17.293 28.797,-28.845c11.553,-23.057 28.845,-40.374 46.162,-63.43c11.577,-5.74 23.057,11.553 40.374,11.553Zm259.558,34.634l0,11.528c17.317,23.081 40.398,40.374 63.43,46.138c17.317,17.317 40.398,23.081 57.715,34.609c5.716,5.764 11.504,11.528 11.504,17.293c-23.033,23.081 -57.666,11.528 -80.747,11.528l-11.504,0c-5.764,5.788 0,11.553 0,11.553c11.504,23.081 17.268,46.138 28.797,63.455c0,5.764 -5.764,5.764 -5.764,11.528c-17.317,0 -34.585,-11.528 -51.902,-23.081c-11.553,0 -17.317,-11.528 -23.081,-11.528c-23.081,-5.764 -34.585,-23.081 -57.666,-23.081c-11.553,5.764 -17.317,5.764 -23.081,0c0,-17.293 5.764,-28.845 17.317,-40.374c5.764,-5.764 0,-23.057 11.553,-17.293c17.317,5.764 11.553,23.081 23.081,23.081c11.504,5.764 28.797,5.764 40.349,17.293c0,0 5.764,0 5.764,-5.764c5.764,-17.317 -5.764,-28.845 -5.764,-46.138c0,-5.764 5.764,-5.764 11.553,-5.764c5.764,-5.764 11.553,0 11.553,-5.764c0,-5.764 -11.553,-5.764 -11.553,-11.553c-17.317,0 -34.634,-11.528 -40.398,5.764c-5.764,0 -11.504,0 -17.268,-5.764c5.764,-5.764 5.764,-11.528 11.504,-17.293c5.764,-11.553 5.764,-34.609 23.081,-46.138c5.74,-0.024 5.74,5.764 11.528,5.764Zm-1511.115,144.177c-5.764,-17.293 -5.764,-40.374 -28.821,-51.902c-11.553,11.528 0,28.821 -11.553,34.609c-5.764,5.764 -11.528,5.764 -17.293,0c-17.293,-5.788 -5.764,-23.081 -23.081,-28.845c-5.764,-11.528 -17.293,-17.293 -5.764,-28.821c5.764,-5.764 5.764,-17.293 17.317,-17.293c5.764,0 5.764,5.764 5.764,11.528c0,0 5.764,11.553 11.528,5.764c0,0 5.764,0 5.764,-5.764c0,-17.293 -17.293,-28.821 -23.057,-46.138c-5.764,-11.528 -5.764,-28.821 -17.317,-28.821c-11.528,0 -5.764,17.293 -5.764,23.081c-11.528,17.293 -23.081,34.609 -40.374,46.138c-11.553,17.317 -23.081,34.609 -40.374,51.926l-11.528,23.081c-5.764,5.764 -5.764,11.528 0,17.293c40.374,11.528 80.747,5.764 126.885,5.764c17.293,0 34.609,-5.764 51.902,5.764c0,5.764 5.764,11.553 11.553,11.553c0,5.764 5.764,5.764 11.528,0c-0.024,-11.625 -11.553,-17.389 -17.317,-28.918Zm-98.064,-11.528c-11.528,-5.764 -23.081,0 -34.609,0c-5.764,-5.764 -5.764,-5.764 -5.764,-11.553c11.553,-5.764 23.081,-28.821 34.609,-11.528c5.764,5.764 5.764,11.528 11.528,17.317l-5.764,5.764Zm472.955,-11.553c0,-5.764 -5.764,-11.528 -11.553,-5.764c-23.081,5.764 -46.138,23.081 -69.195,34.609c-11.553,0 -23.081,11.528 -34.609,11.528c-11.553,5.764 -23.081,0 -28.845,0c-5.764,0 -5.764,0 -5.764,5.764c17.293,11.528 28.845,28.845 40.374,46.138c11.528,-5.764 5.764,-17.293 11.528,-23.081c11.553,-5.764 17.317,0 23.081,0c11.528,11.553 28.821,23.081 28.821,40.374l-5.764,0c0,5.764 -11.528,11.553 -5.764,17.293l23.081,5.764c5.764,5.764 11.553,23.081 28.845,23.081l0,-11.553c-23.081,-46.114 11.528,-92.227 5.764,-144.153Zm-34.609,63.455c-5.764,0 -11.528,-11.528 -17.293,-17.293c0,0 -5.764,-5.764 0,-5.764c5.764,-5.764 17.293,-17.293 28.845,-17.293l0,5.764c0,11.504 -5.788,17.268 -11.553,34.585Zm859.373,-28.845c-34.634,-5.764 -69.195,-17.293 -103.828,-28.821c-11.553,0 -17.317,-11.553 -28.797,0c-5.764,11.528 5.716,23.057 5.716,40.374c5.764,23.081 5.764,46.138 0,74.983c0,5.764 -11.504,17.293 -5.716,23.057c11.504,5.764 11.504,-5.764 17.268,-5.764c11.553,-11.528 28.845,-17.293 34.634,-28.821c0,-5.764 -11.553,0 -11.553,-5.764c-5.764,-11.528 5.764,-17.293 11.553,-28.821c11.553,0 17.317,-11.553 28.845,-11.553c11.504,5.764 0,11.553 0,17.317c0,5.764 0,5.764 5.764,5.764c17.268,-11.528 28.797,-28.845 46.114,-40.374l0,-11.577Zm-103.828,28.845c-5.764,-5.764 -5.764,-23.081 -5.764,-28.821c5.764,-5.764 5.764,-5.764 11.553,0l23.081,5.764l0,5.764c-5.788,11.504 -17.317,23.057 -28.869,17.293Zm-617.132,0c34.609,11.553 63.455,23.081 98.064,34.609c5.764,0 5.764,5.764 11.528,5.764c0,11.553 -5.764,23.081 -11.528,28.845c0,5.764 -5.764,5.764 -11.553,0c-5.764,-5.764 -5.764,-28.845 -23.081,-23.081c-11.528,0 -17.293,17.293 -23.081,28.821c-5.764,11.553 -17.293,28.845 -17.293,40.374c5.764,11.528 17.293,17.293 23.081,28.821c0,0 0,5.764 -5.764,5.764c-11.528,0 -17.293,-5.764 -23.081,-5.764c-17.293,-5.764 -34.585,-5.764 -51.902,-17.293l0,-5.764c5.764,-5.764 17.317,-5.764 23.081,-5.764c11.528,-17.317 17.293,-40.374 23.081,-63.455c5.764,-5.764 11.528,-11.553 11.528,-17.317c-5.764,-5.764 -11.528,-11.528 -23.081,-11.528c-5.764,5.764 -11.528,17.293 -23.057,23.081c0,0 -5.764,0 -5.764,-5.764c0,-17.293 5.764,-28.821 11.553,-40.374c5.74,-5.764 11.528,0.024 17.268,0.024Zm905.535,46.138c5.764,17.293 23.033,28.821 34.585,40.374c23.081,17.317 40.398,34.609 69.195,34.609c5.764,0 23.081,0 23.081,5.764c5.764,17.293 -11.553,17.293 -17.317,23.057l-34.585,34.609c0,5.764 -5.764,5.764 -5.764,0c-5.764,-5.764 -5.764,-11.528 -11.553,-23.081c-5.764,-5.764 -11.553,-23.081 -23.081,-28.821c-17.317,-11.553 -34.585,-34.609 -57.666,-46.138c-11.553,0 -17.317,23.081 -28.845,5.764c0,-17.317 17.317,-28.845 23.081,-46.138c5.764,-5.764 11.553,-17.293 23.081,-23.081c11.577,0 0.024,17.317 5.788,23.081Zm-357.598,34.609c0,-5.764 -5.764,-5.764 -11.553,-5.764c-5.788,0 -11.553,11.553 -11.553,17.317c0,5.764 -11.504,5.764 -17.268,5.764c-5.764,0 -17.317,-5.764 -17.317,-11.528c0,-17.293 11.553,-40.374 -5.764,-57.666c-11.553,-28.845 -46.162,-23.081 -69.195,-11.528c-17.317,11.528 -34.634,11.528 -51.95,23.057c0,5.764 5.764,5.764 5.764,11.553c5.764,5.764 17.317,0 23.081,0c5.764,5.764 11.553,17.293 17.317,28.821c5.764,11.553 11.553,28.845 17.317,46.138c0,11.528 -11.553,23.057 0,28.845c5.716,-5.788 17.268,-5.788 28.797,-11.553c11.553,-5.764 -5.764,-11.528 0,-23.081l5.764,-5.764c5.764,5.764 17.317,5.764 23.081,11.528c28.845,0 57.666,-5.764 69.195,-28.845c0.048,-5.764 0.048,-17.293 -5.716,-17.293Zm-86.511,-5.788c0,5.764 -5.764,5.764 -11.553,0c-5.764,0 -5.764,-11.528 -11.553,-17.293c0,-5.764 -11.504,-11.553 -5.764,-17.317c17.317,-5.764 28.845,0 34.634,11.553c5.764,11.528 0,17.317 -5.764,23.057Zm-230.713,-23.057c0,5.764 -5.764,5.764 -5.764,11.528c-5.764,0 -11.528,0 -11.528,5.764c-5.764,28.821 -5.764,57.666 5.764,80.723c5.764,11.553 17.293,11.553 28.821,11.553c23.081,-11.553 17.293,-46.138 23.081,-69.195c0,-11.553 5.764,-23.081 0,-28.845c0,-5.764 -5.764,-5.764 -5.764,-5.764c0,-5.764 0,-5.764 5.764,-5.764c11.528,-5.764 23.057,5.764 40.374,0l5.764,5.764c5.764,5.764 0,11.528 -5.764,11.528c-5.764,0 -5.764,5.764 -11.553,5.764c-11.553,34.609 -5.764,74.983 -28.821,98.064c-17.293,11.528 -40.374,17.293 -57.666,5.764c-40.374,-23.081 -17.293,-74.983 -28.845,-109.592c0,-5.764 -11.528,0 -11.528,-11.528c0,0 -5.764,-5.764 0,-11.553c11.528,-5.764 28.821,-5.764 46.138,0c0,0.024 5.764,0.024 11.528,5.788Zm-594.075,40.374c0,23.081 11.553,34.609 28.845,40.374c5.764,5.764 0,11.528 -5.764,11.528c-5.764,0 -17.317,0 -28.845,5.764c-5.764,5.788 -17.293,0 -28.845,5.788c-5.764,0 -11.553,0 -11.553,-5.788l0,-5.764c5.764,-5.764 17.317,-5.764 17.317,-17.293c5.764,-17.293 -5.764,-28.845 -17.317,-40.374c-11.528,0 -17.293,-5.764 -23.057,0c-11.528,5.764 -11.528,17.317 -5.764,28.845c5.764,17.293 11.553,28.821 17.293,46.138c0,17.317 -5.764,40.374 -23.057,51.926c-11.553,5.764 -23.081,17.293 -40.374,11.528c-11.528,0 -23.057,-11.528 -28.821,-23.081c-11.553,-11.528 -23.081,-28.821 -28.821,-40.374c0,-11.553 11.528,-11.553 17.293,-17.293l28.845,-5.764c11.528,5.764 -11.528,11.528 -11.528,23.081c0,11.553 5.764,23.081 17.293,28.845c5.764,5.764 17.293,0 23.081,-5.764c5.764,0 5.764,-11.528 5.764,-17.293c-5.764,-28.845 -23.081,-51.902 -17.293,-86.511c5.764,-5.764 11.553,-17.293 23.081,-23.057c23.081,-11.553 51.902,0 74.983,17.293l17.244,17.244Zm1211.207,196.104c-5.764,-34.609 -17.268,-63.455 -23.033,-98.04c0,-11.528 -5.764,-28.845 0,-40.374c5.764,-11.528 11.553,-17.293 11.553,-28.821c0,-5.764 -5.764,-5.764 -11.553,-5.764c-5.764,11.528 -17.317,17.293 -34.634,23.057c-5.764,11.528 -17.317,11.528 -23.081,23.081c5.764,5.764 11.553,5.764 17.317,5.764c5.764,0 5.764,11.553 5.764,11.553c-11.553,17.293 -28.845,28.821 -46.114,34.609c0,0 -5.764,0 -11.553,-5.764c-5.764,-11.553 5.764,-17.293 5.764,-23.081c0,-5.764 -5.764,-5.764 -5.764,-5.764c-17.317,11.528 -34.634,17.293 -46.162,34.609c-5.764,5.764 -11.504,5.764 -11.504,11.528c0,5.764 5.716,11.528 5.716,11.528c5.764,5.764 11.553,5.764 17.317,0c28.845,5.764 57.666,17.317 80.747,34.609c23.081,5.764 34.634,28.821 46.162,34.609c11.553,5.764 23.033,5.764 28.797,0c5.788,-5.813 0.024,-11.577 -5.74,-17.341Zm-34.585,-40.374c-11.553,0 -11.553,-5.764 -23.081,-11.553l-5.764,-5.764l5.764,0c5.764,-5.764 17.317,-28.845 23.081,-11.528c5.764,11.528 0,17.293 5.764,23.057l-5.764,5.788Z" style="fill:#fff;"/><path d="M2056.714,1109.984c-11.553,-57.666 -40.398,-103.828 -57.715,-161.494c-17.268,-23.081 -23.033,-46.138 -40.349,-74.983c-5.764,-11.528 -5.764,-28.845 -17.317,-46.138c-5.764,-11.553 -17.317,-23.081 -28.797,-40.374c-17.317,-11.528 -23.081,-34.609 -46.162,-46.138c-28.797,-40.374 -63.43,-69.219 -98.064,-103.828c-17.268,-5.764 -34.585,-23.081 -51.902,-34.609c-17.317,-5.764 -34.634,-23.081 -57.666,-28.845c-28.845,-17.293 -57.715,-34.609 -86.511,-46.138c-11.553,-5.764 -23.081,-11.528 -28.845,-17.293c-23.081,-5.764 -46.114,-23.081 -69.195,-28.821c-11.553,0 -23.081,5.764 -34.634,0c-5.764,-17.293 5.764,-34.609 11.553,-51.902c11.553,-17.317 34.634,-5.764 51.95,-17.317c5.764,-5.764 5.764,-11.553 5.764,-23.057c-11.553,-11.553 -23.081,-23.081 -46.162,-23.081c-28.845,5.764 -51.902,23.081 -74.983,40.374c-11.553,11.553 -23.081,-5.764 -40.349,-5.764c-5.764,-5.764 -17.317,-17.293 -17.317,-28.821c0,-11.528 11.553,-17.293 23.081,-23.081c17.268,-17.293 46.114,-11.528 63.43,-5.764c11.553,0 17.268,-11.553 17.268,-17.293c0,-5.764 0,-17.317 -5.716,-23.081c-5.764,-5.764 -17.317,-11.553 -28.845,-11.553c-28.845,-5.764 -69.195,-11.528 -98.064,11.553c-11.553,5.764 -23.081,23.081 -34.609,23.081c-17.293,-11.553 -40.374,-17.317 -57.666,-28.845l-23.081,-11.553c-28.821,-5.764 -51.902,11.553 -69.219,34.609c0,11.528 -11.528,28.821 0,40.374c5.764,5.764 11.553,5.764 17.317,5.764c11.553,0 17.293,-11.528 17.293,-17.293c5.764,-5.764 11.528,0 17.293,0c11.528,0 17.293,11.528 23.081,17.293c5.764,11.553 -5.764,23.081 -17.293,34.609c-5.764,5.764 -17.293,5.764 -28.821,0c-28.845,-17.293 -63.455,-46.138 -103.828,-28.821c-17.293,5.764 -40.374,23.081 -40.374,46.138c5.764,17.293 23.081,0 34.609,0c17.293,0 34.609,0 46.138,17.293c5.764,11.528 0,23.081 -5.788,28.845c-28.821,11.528 -57.666,11.528 -80.723,17.293c-28.845,5.764 -46.138,17.293 -69.219,28.821c-40.374,17.293 -86.511,28.845 -121.121,57.666c-28.821,17.317 -51.926,40.374 -74.983,57.69c-23.081,23.057 -51.926,34.609 -74.983,63.43c-11.553,17.317 -28.845,34.609 -46.138,51.926c-11.553,17.293 -28.845,23.057 -34.609,40.374c-17.293,23.081 -34.609,40.374 -46.138,63.43c-40.374,57.69 -74.983,115.357 -92.3,184.575c-11.528,34.609 -23.057,63.43 -23.057,98.04c-11.553,17.317 -11.553,34.609 -11.553,51.926c-5.764,23.081 -5.764,51.926 -5.764,80.747c5.764,40.374 -5.764,92.3 11.528,126.885c11.553,80.747 34.609,149.942 57.666,219.16c17.293,28.821 23.081,63.455 40.374,92.276c46.138,69.219 92.276,144.202 149.966,213.396c23.057,28.845 57.666,46.138 86.511,74.983c40.374,28.821 80.747,51.902 126.885,69.195c23.081,11.553 51.926,23.081 80.747,28.845c34.609,17.293 74.983,17.293 115.357,28.821c23.081,5.764 51.902,0 74.983,5.764c11.528,11.553 23.057,17.293 34.609,28.845l0,28.797c-11.553,28.845 -11.553,57.715 -34.609,86.511c-11.553,11.553 -28.845,17.317 -46.138,23.081c-23.081,11.553 -51.926,-11.553 -69.219,11.553c0,0 0,5.764 5.764,11.553c17.293,5.764 46.138,5.764 69.219,5.764c11.528,5.764 34.609,5.764 46.138,5.764c17.293,-11.553 34.585,-11.553 46.138,-17.317c17.293,-5.764 28.845,-17.317 46.138,-17.317l51.902,23.081c34.634,0 69.195,5.764 103.828,0c11.553,0 23.081,-11.553 28.845,-23.081c5.764,-5.764 5.764,-11.553 0,-17.317c-5.764,-5.764 -11.553,0 -23.081,0c-23.081,-5.764 -51.902,-11.553 -69.195,-34.585c-17.317,-23.081 -34.634,-57.715 -23.081,-92.3c5.764,-11.528 23.081,-11.528 40.398,-17.317c51.902,-11.528 109.544,-17.293 155.73,-40.374c40.349,-11.553 74.983,-28.845 115.332,-46.138c34.634,-23.081 63.43,-40.374 98.064,-63.455c46.114,-28.821 80.747,-74.983 121.145,-115.357c17.268,-17.293 28.797,-40.374 46.114,-57.666c28.845,-34.609 51.902,-74.983 69.195,-109.592c17.317,-23.057 28.845,-46.138 40.398,-69.195c23.033,-40.374 34.585,-92.3 51.902,-144.202c5.764,-40.374 11.553,-86.511 23.081,-126.885c5.764,-23.081 5.764,-51.926 5.764,-74.983c0,-57.569 -5.788,-115.26 -17.317,-167.162Zm-715.172,-669.034l5.764,0c0,-5.764 5.764,-11.528 5.764,-11.528c11.504,0 17.268,17.293 28.797,17.293c11.528,0 17.317,-17.293 28.845,-23.057c11.528,-5.764 23.033,-17.317 40.349,-23.081c-23.033,17.317 -40.349,34.609 -40.349,57.69c-5.764,28.821 0,51.902 11.553,80.747c5.764,0 11.504,5.764 17.268,5.764c5.764,-5.764 5.764,-5.764 11.553,-5.764c-5.764,-11.553 -5.764,-23.081 -11.553,-34.609l5.764,0c11.553,-5.764 17.317,5.764 28.845,5.764l0,5.764c0,5.764 -11.553,0 -11.553,11.528c0,5.764 0,11.553 -5.764,17.317c-5.764,5.764 -5.764,5.764 -11.553,5.764c-23.033,0 -40.349,-17.293 -51.902,-34.609l-11.553,-40.374c-5.764,-11.528 -17.317,-5.764 -28.797,-5.764c-5.764,-5.764 -17.317,-5.764 -17.317,-11.528c-5.716,-5.788 -5.716,-17.317 5.837,-17.317Zm-23.105,1061.241c17.317,17.293 40.349,28.821 40.349,51.926c5.764,28.821 11.553,69.195 -11.504,92.276c-11.553,28.845 -28.845,63.455 -63.479,74.983c-23.057,17.293 -69.195,11.528 -92.276,-5.764c-12.285,-6.509 -22.336,-16.56 -28.845,-28.845c-23.057,-34.609 -34.609,-92.276 -11.528,-132.649c11.528,-28.845 40.374,-63.455 74.983,-69.219c28.845,0 57.666,5.764 80.747,11.553l5.764,-5.764c0,-17.293 -17.317,-23.057 -28.845,-28.821c-17.293,-5.764 -40.374,0 -63.43,0c-28.845,5.764 -57.69,17.293 -80.747,34.609c-46.138,34.609 -63.455,86.511 -69.219,138.413c0,28.845 11.553,51.902 23.081,74.983c17.293,28.821 46.138,34.609 74.983,51.902c17.293,0 40.374,11.528 57.666,17.293c5.764,0 5.764,5.764 5.764,11.528c-5.764,17.293 -28.845,5.764 -40.374,5.764c-28.845,-5.764 -51.902,-5.764 -74.983,-17.293c-23.057,-5.764 -40.374,-11.528 -57.666,-28.845c-5.764,0 -5.764,-5.764 -5.764,-5.764c5.764,-17.317 11.528,-34.609 23.057,-46.138l0,-17.293c-5.764,0 -11.528,-5.764 -17.293,-5.764c-17.317,17.293 -17.317,40.374 -34.609,57.666c-23.081,5.764 -40.374,-11.528 -57.666,-23.057c-11.553,-11.553 -11.553,-28.845 -5.764,-46.138c17.317,-34.609 40.374,-57.666 51.926,-92.3c17.293,-23.057 23.081,-57.666 46.138,-80.747c11.528,-23.057 17.293,-46.138 40.374,-57.666c23.057,-11.528 51.902,-5.764 69.195,17.293c5.764,0 11.528,-5.764 17.293,-5.764c10.807,-5.756 23.802,-5.756 34.609,0c5.764,5.764 11.528,11.528 17.293,5.764c17.317,0 23.081,-5.764 40.374,-11.528c17.293,-5.764 40.374,-5.764 57.69,5.764c11.553,5.764 11.553,23.081 11.553,34.609c5.764,5.764 5.764,11.528 0,11.528c-11.553,5.764 -23.081,-5.764 -28.845,5.764l0,5.74Zm334.541,46.162c5.764,17.293 28.797,28.821 11.553,51.902c-11.553,28.845 -46.162,51.902 -69.243,74.983c-5.716,5.764 -11.504,5.764 -17.268,5.764c-23.081,-34.609 -34.634,-74.983 -57.715,-109.592c-5.716,-17.293 -11.504,-34.609 -23.033,-51.902c-5.764,-17.293 -28.845,-34.609 -28.845,-57.666c0,-5.764 5.764,-11.553 11.553,-17.293c23.081,0 40.349,0 63.43,5.764l11.553,5.764c34.585,28.797 63.382,63.43 98.016,92.276Zm-57.715,-109.592l5.764,0c40.398,-5.764 80.747,-17.293 121.145,-5.764l11.553,5.764l5.764,5.764c5.764,40.374 -17.317,69.195 -40.398,103.828c-17.317,0 -23.033,-11.553 -34.585,-23.081c-17.317,-23.057 -34.634,-46.138 -57.715,-63.43c-5.764,-5.788 -11.528,-11.553 -11.528,-23.081Zm-86.463,173.023c17.268,28.845 28.797,57.69 46.114,80.747c5.764,5.764 5.764,11.553 0,11.553c-17.317,17.293 -40.349,28.821 -63.43,40.374c-23.081,5.764 -40.398,11.553 -57.715,11.553c-5.716,0 -11.504,-5.788 -11.504,-11.553c-11.553,-63.455 -17.317,-132.673 -28.845,-196.104c0,-23.081 0,-51.926 -5.764,-69.219l0,-34.609c11.553,-5.764 28.845,-5.764 40.398,5.764c17.268,23.081 23.033,51.926 40.349,80.747c17.317,23.081 23.081,57.666 40.398,80.747Zm-121.145,69.219c5.764,28.845 5.764,57.666 11.553,86.511c0,5.764 -5.764,11.528 -11.553,11.528c-17.317,11.528 -34.585,11.528 -51.902,17.293c-23.081,0 -40.398,5.764 -57.69,0c-5.764,-11.528 -5.764,-17.293 0,-28.821c17.293,-17.317 46.162,-17.317 63.479,-34.609c17.268,-17.293 23.033,-34.609 40.349,-51.902c0,-11.528 5.764,-5.788 5.764,0Zm-357.598,-201.868c-17.293,34.609 -28.845,69.219 -51.902,103.828c-11.553,17.293 -11.553,34.609 -23.081,51.902c-11.528,11.528 -11.528,28.845 -34.585,34.609c-28.845,-11.553 -51.926,-34.609 -69.219,-57.69c-5.764,-28.821 11.528,-46.138 23.081,-69.195c23.081,-28.845 46.138,-63.455 69.195,-86.511c28.845,-28.821 63.455,-34.609 98.04,-23.081c5.764,5.764 5.764,11.553 5.764,11.553c-5.764,11.504 -17.293,23.057 -17.293,34.585Zm-138.413,-5.788c-17.293,17.293 -28.845,34.609 -46.138,51.902c-11.528,5.764 -23.057,23.081 -34.609,17.317c-23.081,-23.081 -28.821,-51.926 -28.821,-86.511c0,-5.764 0,-17.293 11.528,-23.081c23.081,-5.764 46.138,5.764 69.195,0l23.081,0c5.764,5.764 17.293,5.764 23.081,11.553c-0.024,11.528 -11.553,17.293 -17.317,28.821Zm-51.926,196.128c23.081,23.057 46.138,40.374 63.455,57.666c63.455,51.926 138.413,74.983 213.396,98.064c40.374,11.528 80.747,17.293 126.885,23.057c40.374,0 74.983,-5.764 115.332,-11.528c11.553,0 23.081,-11.528 40.398,-11.528c28.845,-5.764 51.902,-23.081 80.747,-34.609c34.634,-11.528 63.43,-34.585 98.064,-46.138c40.349,-28.821 69.195,-74.983 103.78,-103.828c11.553,-28.845 40.398,-57.666 51.95,-86.511c11.553,-28.845 34.585,-51.926 40.349,-80.747c11.553,-17.293 11.553,-34.609 28.845,-51.902c23.081,-11.553 51.902,-5.764 80.747,-11.553l46.114,0c5.764,5.764 0,17.317 0,28.845c-5.764,23.081 -11.553,46.138 -17.268,69.219c-11.553,23.057 -17.317,51.902 -28.845,74.983c-11.528,23.081 -17.317,51.902 -34.634,74.983c-23.033,28.821 -40.349,63.455 -63.43,86.511l-34.585,34.609c-28.845,23.081 -51.95,51.926 -80.747,74.983c-17.317,11.553 -28.845,28.845 -51.95,34.609c-34.585,23.081 -74.983,51.926 -121.097,69.219l-63.479,23.081l-17.268,5.764l-155.73,17.293c-23.081,0 -40.374,-5.764 -63.455,-5.764c-23.081,-5.764 -51.902,-5.764 -80.747,-11.528c-103.804,-11.553 -201.868,-34.609 -282.591,-98.064c-45.432,-28.22 -86.279,-63.227 -121.121,-103.804l-69.219,-86.511c-23.057,-23.081 -28.821,-51.926 -40.374,-74.983c-17.293,-46.138 -28.821,-86.511 -34.609,-132.673c-5.764,-17.293 -11.528,-40.374 -11.528,-57.666c5.764,-17.293 23.057,-11.528 34.585,-11.528c17.317,0 23.081,-5.764 34.609,-5.764c23.081,5.764 57.666,-5.764 63.455,17.293c11.528,46.138 46.138,86.511 63.43,132.673c23.105,40.325 57.715,69.146 86.536,103.78Zm1061.266,-294.168c-46.162,0 -86.511,5.764 -126.909,5.764l-63.43,0c-17.317,5.764 -40.349,5.764 -63.43,5.764c-17.317,0 -34.634,5.764 -57.666,0l-248.03,0c-28.845,-5.764 -57.715,0 -92.3,0c-46.138,0 -92.276,5.764 -138.413,0l-230.713,0c-34.609,0 -63.43,-11.553 -98.04,-5.764c-51.926,-5.764 -103.828,0 -155.73,-17.317c-17.293,5.764 -40.374,0 -57.666,5.764l-11.528,-11.528c-5.764,-40.374 -28.845,-74.983 -11.553,-109.592c0,-5.764 5.764,-17.293 11.553,-17.293l161.47,0c11.553,-5.764 23.081,0 34.609,0c34.609,-5.764 74.983,0 115.357,0c34.609,-5.764 63.455,11.528 103.828,5.764c28.821,-5.764 69.195,0 103.804,0c17.317,0 40.374,-5.764 57.69,0c17.293,0 40.374,0 57.666,-5.764l121.121,0c5.764,-5.764 17.317,0 28.845,0c28.797,-5.764 57.666,0 86.511,-5.764c51.902,0 103.78,0 155.73,5.764c11.504,-5.764 28.797,0 46.114,0c69.195,-5.764 149.942,-5.764 219.16,-5.764c23.081,-5.764 51.95,-5.764 74.983,-5.764c5.764,0 11.553,0 17.317,5.764c5.764,17.293 5.764,34.609 5.764,57.666c0,28.821 11.553,51.902 5.764,80.723c0,5.764 -5.764,11.553 -11.553,11.553c-17.293,5.788 -28.773,0.024 -40.325,0.024Zm-940.145,-351.81c-11.528,-17.317 -34.609,-11.553 -46.138,-5.764c-32.763,5.282 -65.447,11.047 -98.04,17.293c-11.553,-5.764 -17.317,0 -23.081,-5.764c5.764,-11.553 17.293,-23.081 23.081,-28.845c11.528,-11.528 34.609,0 34.609,-17.293c5.764,-11.553 -17.293,-17.293 0,-23.081c23.081,-5.764 46.138,-5.764 69.219,-5.764l103.804,5.764c17.293,5.764 40.374,5.764 57.69,0c5.764,0 11.528,-5.764 5.764,-11.553c-11.553,-11.528 -23.081,-5.764 -40.374,-17.293l-86.511,0c-23.057,5.764 -46.138,0 -69.195,-5.764c-5.764,0 -11.553,0 -5.764,-5.764c17.293,-11.528 34.609,-17.293 51.926,-17.293l5.764,0c0,-11.553 0,-17.317 -5.764,-23.081c40.374,-23.081 86.511,5.764 121.121,17.293l17.293,5.764c11.553,11.528 28.845,11.528 40.374,17.293c5.764,17.293 -17.293,28.821 -11.528,51.902c0,34.609 0,74.983 34.609,103.828c23.057,11.528 46.138,23.081 69.195,28.845c11.553,-5.764 23.081,0 34.609,-5.764c5.764,5.764 17.317,0 23.081,5.764c0,17.293 5.764,23.057 11.528,34.609c-5.764,23.057 5.764,40.374 5.764,57.666c0,5.764 -5.764,5.764 -11.528,5.764c-11.528,0 -11.528,-5.764 -17.293,-11.528c-5.764,-23.081 5.764,-40.374 5.764,-57.69c0,-5.764 -5.764,-11.528 -11.553,-17.293c-5.764,0 -11.553,5.764 -11.553,5.764c-5.764,11.528 -5.764,28.821 0,34.609c0,11.528 0,17.293 -5.764,23.081c5.764,11.553 5.764,23.081 -5.764,28.821c-5.764,0 -11.528,5.764 -17.293,-5.764c-5.764,-5.764 0,-17.293 0,-28.845c11.553,-11.553 5.764,-28.821 11.553,-46.138c0,-5.764 0,-5.764 -5.764,-11.528c-5.764,0 -17.293,0 -17.293,11.528c-5.764,5.764 0,23.081 -5.764,34.609c-5.764,17.317 0,40.374 -23.081,46.138l-28.821,0c-5.764,-5.764 -5.764,-5.764 0,-11.528c11.528,-23.081 34.609,-40.374 46.138,-69.219c0,-5.764 -5.764,-11.528 -11.528,-23.057l-5.837,0c-11.528,11.528 -11.528,23.057 -23.057,34.609c-5.764,17.293 -23.081,40.374 -34.609,57.666c-11.528,11.528 -28.821,5.764 -40.374,5.764l0,-5.764c5.764,-17.293 23.081,-28.845 34.609,-46.138c11.528,-11.528 23.081,-17.293 34.609,-34.609c0,0 5.764,-5.764 5.764,-17.293c0,0 -5.764,-5.764 -5.764,-11.553c-5.764,0 -17.317,0 -17.317,5.764c-11.528,5.764 -17.293,23.081 -23.057,34.609c-17.293,23.081 -46.138,46.138 -63.455,74.983c-23.081,5.764 -46.138,5.764 -69.219,5.764c0,-5.764 -5.764,-11.528 0,-11.528c40.374,-28.845 74.983,-63.455 115.357,-92.276c11.528,-17.317 34.585,-23.081 28.821,-46.138c-11.528,-11.553 -28.821,-11.553 -46.138,-11.553c-34.609,17.317 -69.195,40.374 -109.592,51.926c-34.585,17.293 -69.195,28.821 -98.04,46.138c-28.845,11.528 -51.926,28.821 -80.747,23.057c-5.764,0 -11.553,-5.764 -5.764,-5.764c28.821,-23.057 63.455,-28.821 92.276,-46.138c28.845,-11.528 51.902,-23.081 74.983,-34.609c5.764,0 11.528,-5.764 17.293,-11.528c0,-5.764 -11.528,-5.764 -23.057,-5.764c-23.081,5.764 -46.138,17.293 -69.219,23.057c-28.821,5.764 -51.902,23.081 -86.511,23.081c0,0 -5.764,0 -11.553,-5.764c0,-11.553 5.764,-17.317 11.553,-23.081l34.609,-17.293c46.138,0 86.511,-11.553 126.885,-23.081c5.764,-5.74 28.845,-5.74 23.057,-17.268Zm149.966,-167.283c-11.528,0 -17.293,-5.764 -23.081,-5.764c-11.553,-11.528 -23.081,-17.293 -34.609,-23.057c-5.764,-5.764 -5.764,-11.553 0,-11.553c0,-5.764 5.764,-11.528 17.293,-11.528c17.293,-5.764 23.081,17.293 34.609,23.081c23.081,11.528 28.845,34.609 46.138,46.138l0,5.764c-11.528,5.764 -17.293,28.845 -34.609,23.081c-17.293,-11.553 -34.585,-23.081 -51.902,-23.081c-17.293,-17.293 -40.374,-23.081 -63.455,-28.845c-5.764,0 -5.764,-5.764 -5.764,-5.764c5.764,-11.528 17.293,0 23.057,-5.764c11.553,11.528 23.081,11.528 40.374,11.528c11.528,11.553 34.609,17.317 51.902,23.081c0,0 5.764,0 5.764,-5.764c0.048,-5.764 -5.716,-5.764 -5.716,-11.553Zm57.69,-40.374c0,-11.528 -5.764,-23.081 0,-28.845l5.764,-5.764c5.764,0 11.528,0 11.528,5.764c-5.764,17.317 0,40.374 5.764,57.666c-5.764,5.764 -11.553,11.553 -17.293,11.553c-11.553,5.764 -17.293,-11.553 -28.821,-17.293c-11.553,-11.528 -17.317,-28.845 -34.609,-34.609l0,-11.553c5.764,-5.764 11.528,-5.764 17.293,-5.764l5.764,5.764c11.553,11.553 17.293,34.609 34.609,40.374c5.764,5.764 11.528,0 11.528,0c0,-11.504 -5.764,-11.504 -11.528,-17.293Zm69.195,5.788c5.764,0 11.553,-5.764 11.553,-11.553l0,-23.081l11.553,-17.293c5.764,0 11.528,0 11.528,5.764c0,17.293 0,34.609 -5.764,46.138c-5.764,5.764 0,23.057 -11.528,23.057c-11.553,5.764 -23.081,5.764 -40.374,5.764l0,-5.74c-5.764,-23.057 -5.764,-40.374 -5.764,-57.666l0,-11.528c0,-5.764 5.764,0 11.553,0c5.764,0 11.528,5.764 11.528,11.528c-0.048,11.528 -5.813,28.821 5.716,34.609Zm40.374,63.43c5.764,0 17.293,5.764 23.081,11.553c11.553,5.764 23.081,17.293 28.845,23.081c5.764,5.764 5.764,11.528 5.764,11.528c-5.764,5.764 -23.081,11.553 -23.081,23.081c5.764,5.764 5.764,17.293 11.553,28.845c5.764,0 11.553,0 11.553,5.764c0,28.821 -5.764,51.902 -28.845,74.983c-11.553,11.528 -28.845,5.764 -46.138,11.528c-34.609,11.528 -69.219,0 -98.064,-23.081c-23.057,-11.528 -28.821,-34.609 -34.609,-57.666c0,-23.081 5.764,-40.374 17.317,-63.455c12.355,-18.132 28.006,-33.783 46.138,-46.138c23.057,-11.553 57.666,-11.553 86.487,-0.024Zm17.293,-103.804c5.764,0 5.764,-5.764 11.553,-5.764c0,0 5.764,0 5.764,5.764c0,23.081 -11.553,40.374 -17.317,57.666c0,0 0,5.764 -5.764,5.764c-5.764,-23.057 11.553,-40.374 5.764,-63.43Zm51.95,57.666l5.764,0c17.268,-17.293 28.797,-51.926 51.902,-40.374c5.764,0 11.553,0 11.553,5.764c0,11.528 -5.764,5.764 -11.553,11.528c-17.317,23.081 -46.162,34.609 -63.43,57.666c-5.764,0 -11.553,0 -17.317,-5.764c-11.553,-17.317 0,-40.374 5.764,-63.455c5.764,-5.764 11.553,-23.081 23.081,-23.081c11.504,0 11.504,0 17.268,5.764l0,5.764c-11.553,11.553 -17.268,23.081 -23.033,34.609c-5.764,0.048 0,5.813 0,11.577Zm34.585,57.666l17.317,0c23.081,-11.553 57.666,-23.081 86.511,-40.374c28.845,-5.764 63.43,0 86.511,23.081c0,0 5.764,0 0,5.764c-17.317,0 -34.634,5.764 -57.666,11.553c-5.764,0 -11.553,5.764 -11.553,11.553c0,5.764 0,5.764 5.764,5.764c17.268,0 34.585,-5.764 51.902,-11.528c11.553,0 28.845,-5.764 46.114,5.764c5.764,5.764 23.081,11.528 17.317,23.057c-11.553,11.553 -28.845,11.553 -40.349,11.553c-63.479,-5.764 -121.145,0 -184.575,5.764l-28.845,0c0,0 -5.764,-5.764 0,-11.528c11.553,0 17.317,-5.764 28.845,-11.553l28.845,0l46.114,-5.764l11.553,-11.528c0,0 -5.764,-5.764 -11.553,-5.764c-17.317,-5.764 -28.845,0 -46.114,0c-23.081,5.764 -40.398,11.528 -57.715,17.293c-11.553,0 -5.764,-17.293 -11.553,-23.081c-5.716,-11.553 0,-17.293 5.764,-17.293c28.845,-34.609 69.195,-69.219 115.381,-46.138l5.764,5.764c0,11.528 -17.317,5.764 -23.081,11.528c-28.845,11.553 -51.902,23.081 -80.747,34.609c0.048,5.74 0.048,5.74 0.048,11.504Zm92.276,98.064c28.845,5.764 51.902,5.764 80.747,5.764l46.114,0c34.634,0 75.031,-11.528 98.064,17.317c5.764,17.293 11.553,28.821 11.553,40.374c0,5.764 0,5.764 -5.764,5.764c-17.317,0 -34.585,-11.553 -51.902,-11.553c-23.081,-5.764 -46.162,-17.293 -74.983,-17.293c-23.081,0 -40.398,-17.293 -63.43,-17.293c-23.081,-5.764 -40.398,-5.764 -57.715,-11.553c-28.797,-5.764 -63.43,-5.764 -80.747,-28.821c-5.764,-5.764 0,-11.528 5.764,-11.528c57.666,-5.764 109.592,-5.764 167.258,-5.764l28.845,0c28.797,0 57.666,0 80.747,5.764c0,0 11.553,5.764 5.764,11.528c-30.496,5.764 -61.804,5.764 -92.3,0l-57.666,0c-17.317,5.764 -34.634,-5.764 -46.162,5.764c0.048,5.764 0.048,11.528 5.813,11.528Zm-46.114,57.666c17.268,11.553 34.585,5.764 51.902,17.317c23.081,5.764 46.114,11.528 69.195,23.057l11.553,0c11.553,11.553 23.081,5.764 34.585,11.553c17.317,5.764 40.398,11.528 57.715,23.057l69.195,17.317c17.317,11.528 28.845,23.057 40.349,34.609c5.764,0 5.764,11.553 5.764,17.293c-5.764,5.764 -17.268,5.764 -28.797,5.764c-5.764,0 -11.553,-5.764 -17.317,-5.764l-23.081,0c-17.317,-5.764 -23.033,-23.081 -34.585,-28.845c-5.764,0 -17.317,-5.764 -23.081,-11.528c-17.317,-5.764 -28.845,-17.293 -40.398,-23.081c-17.268,-5.764 -34.585,-11.528 -46.114,-17.293c-11.553,-17.293 -28.845,-17.293 -46.114,-28.845c-17.317,-5.764 -40.398,-11.528 -57.715,-17.293c-11.553,-5.764 -28.797,-11.553 -40.349,-17.317c-5.764,0 -11.553,0 -11.553,5.764c0,17.293 17.317,17.293 28.845,23.081c11.504,0 23.033,11.528 34.585,11.528c23.081,5.764 40.398,11.553 57.666,23.081c11.553,5.764 23.081,17.293 34.634,23.081c23.081,17.293 57.666,11.528 74.983,34.609c11.553,11.553 28.845,17.317 40.398,28.845c0,5.764 -5.764,5.764 -5.764,5.764c-23.081,-5.764 -40.398,-5.764 -57.715,-5.764c-11.553,0 -23.033,-5.764 -34.585,-5.764c-28.845,-17.293 -57.666,-40.374 -86.511,-63.455c-28.845,-5.764 -46.162,-23.081 -69.195,-40.374c-17.317,-11.528 -34.634,-28.821 -57.715,-34.609c0,-5.764 -5.716,-5.764 -5.716,-11.553c5.716,-11.528 17.268,-23.057 17.268,-34.609c5.764,-11.553 11.553,0 17.317,0c28.845,5.764 57.666,11.553 80.747,17.317c34.634,11.528 74.983,11.528 109.592,23.057c28.797,5.764 51.902,17.317 74.983,23.081c23.081,5.764 46.114,5.764 63.43,11.528c11.553,5.764 17.317,23.081 17.317,34.609c0,0 -5.764,5.764 -11.553,5.764c-40.398,-5.764 -69.195,-28.821 -109.592,-40.374c-28.797,-5.764 -57.666,-17.293 -86.511,-28.821c-23.033,-5.764 -51.902,-5.764 -74.983,-17.293c-5.764,-5.764 -11.553,0 -17.317,0c-5.764,-0.024 -5.764,5.74 -5.764,11.504Zm-115.381,40.374l5.764,-5.764c11.553,0 11.553,11.553 17.317,11.553c17.317,17.293 34.585,28.821 46.114,46.138c17.317,11.528 23.081,28.821 34.634,40.374c0,5.764 5.764,5.764 0,11.528c-5.764,0 -11.553,5.764 -17.317,5.764c-5.764,0 -17.317,0 -17.317,-5.764c-28.797,-34.634 -46.114,-69.219 -69.195,-103.828Zm28.869,98.064c0,5.764 -5.764,11.528 -11.553,11.528c-5.764,-5.764 -17.317,-5.764 -23.081,-11.528c-5.764,-23.081 -11.553,-46.138 -11.553,-69.219c-5.764,-5.764 -5.764,-11.553 -5.764,-23.081c5.764,-5.764 11.553,5.764 11.553,5.764c11.528,28.845 40.398,51.926 40.398,86.536Zm5.764,-103.828c0,0 -5.764,-5.764 -5.764,-11.528c0,-5.764 5.764,-5.764 5.764,-5.764c11.504,0 17.268,11.528 23.033,17.293c28.845,5.764 46.162,34.609 74.983,46.138c23.081,17.293 46.162,23.081 69.243,46.138c11.504,5.764 23.033,17.293 34.585,23.081l-11.553,0c-11.553,0 -28.797,0 -46.114,-5.764c-23.081,-5.764 -40.398,-17.293 -57.715,-34.609c-28.797,-23.081 -51.878,-51.926 -86.463,-74.983Zm-426.817,98.064c-23.081,11.528 -57.69,17.293 -86.511,5.764c-5.764,0 0,-5.764 0,-11.553c34.609,-23.081 74.983,-34.609 115.357,-51.926c23.081,-5.764 40.374,-23.057 63.455,-28.821c23.081,-5.764 40.374,-23.081 63.43,-28.821c5.788,-5.764 11.553,-11.553 17.317,-5.764c-5.764,17.293 -23.081,28.821 -40.374,40.374c-40.398,34.585 -92.324,51.902 -132.673,80.747Zm986.258,11.528l-51.95,0c-23.033,0 -40.349,5.764 -57.666,0l-5.764,0c0,-28.845 0,-51.902 -17.317,-74.983c-5.764,-23.081 -11.553,-46.138 -28.797,-63.455c-5.764,-23.081 -23.081,-46.138 -34.634,-63.455l-51.902,-69.219c-23.081,-17.293 -34.634,-40.374 -63.479,-57.666c-23.033,-17.317 -46.114,-28.845 -69.195,-46.138c-23.033,-11.553 -51.902,-17.293 -74.983,-28.845c-17.317,-11.528 -40.349,-11.528 -63.43,-23.081c-32.599,-6.26 -65.29,-12.025 -98.064,-17.293l-98.04,0c-28.845,0 -63.455,11.528 -92.276,17.293l-40.374,5.764c-46.138,11.528 -86.511,40.374 -126.885,63.455c-23.081,17.293 -46.138,40.374 -69.219,57.666c-28.821,23.081 -57.666,51.902 -74.983,80.747c-11.528,11.553 -23.081,23.057 -28.845,34.609c-17.293,17.317 -23.057,40.374 -34.609,57.69c-17.293,34.609 -23.081,80.723 -40.374,121.121c-5.764,5.764 -11.528,0 -17.293,0c-23.081,5.764 -40.374,5.764 -63.455,0c-17.293,0 -34.609,0 -51.902,-5.764c-5.764,-5.764 -11.553,-11.553 -5.764,-23.081c-5.764,-51.902 17.293,-92.276 28.845,-138.413c5.764,-23.081 17.293,-46.138 28.821,-69.219c17.317,-40.374 40.374,-80.747 74.983,-109.592c17.317,-23.057 28.845,-46.138 46.138,-57.666c28.821,-23.081 63.455,-51.902 98.064,-63.455l51.902,-34.609c34.609,-17.293 69.195,-34.609 103.828,-46.138c17.293,-11.553 34.609,-17.293 51.902,-28.845c57.666,-23.057 132.649,-28.821 196.104,-40.374c17.293,5.764 28.845,-5.764 46.138,0c51.926,-5.764 98.04,5.764 149.966,17.317l51.902,17.293c28.845,17.317 57.666,28.845 80.747,40.374c23.081,11.553 40.349,23.081 63.43,34.609c40.398,17.317 69.195,63.455 103.828,86.511c40.349,28.845 63.43,69.219 98.064,103.828l0,5.764l23.033,34.609c11.553,17.293 23.081,40.374 28.845,63.455c23.081,40.374 28.845,86.511 51.902,126.885c0,23.057 17.317,46.138 17.317,69.195c0.024,17.341 -23.057,11.577 -34.561,23.105Zm-709.408,-692.115c23.081,-23.081 34.609,-57.69 34.609,-98.064c5.764,-28.821 -5.764,-51.902 -17.293,-74.983l0,-5.764l5.764,5.764c17.293,11.553 34.609,23.081 46.138,40.374c5.764,5.764 11.528,5.764 11.528,0c17.293,-17.293 28.845,-46.138 57.69,-51.902c0,0 5.764,-5.764 5.764,0c0,5.764 -5.764,5.764 -11.553,5.764c-23.081,23.057 -40.398,51.902 -46.162,80.723c0,34.609 11.553,69.219 23.081,98.064l-5.764,0c-5.764,-5.764 -11.553,-17.317 -23.081,-28.845c-5.764,-5.764 -11.528,-17.293 -11.528,-28.845c0,0 -5.764,-5.764 -5.764,0c-17.317,28.845 -28.845,69.219 -69.219,80.747l-11.553,0c0.024,-11.504 11.553,-11.504 17.341,-23.033Zm-40.374,-69.219c5.764,-5.764 17.293,-17.293 28.821,-11.528l5.764,0c0,11.528 -5.764,17.293 -11.553,23.057c-5.764,5.764 -11.528,5.764 -23.057,5.764l0.024,-17.293Zm-138.438,80.747c5.764,-17.293 17.317,-17.293 28.845,-23.081c5.764,0 11.553,0 17.293,5.764c0,17.293 -34.609,17.293 -17.293,34.609c17.293,0 34.609,-11.553 40.374,-23.081c17.293,-23.081 40.374,-46.138 28.821,-74.983c5.764,0 17.317,-5.764 23.081,0c0,11.528 -5.764,28.845 5.764,34.609c11.528,0 17.293,-11.528 17.293,0c5.764,5.764 -5.764,11.553 -5.764,11.553c-17.293,5.764 -34.609,-11.553 -40.374,5.764c-5.764,23.081 -17.293,51.926 -40.374,63.455c-17.293,0 -34.609,5.764 -46.138,0c-11.528,-11.528 -11.528,-23.081 -11.528,-34.609Zm-588.287,715.196c0,-40.374 11.528,-80.747 17.293,-121.121c5.764,-17.293 11.553,-40.374 11.553,-63.455l23.057,-57.666c23.081,-34.609 34.609,-80.747 69.219,-115.357c17.293,-28.845 40.374,-57.666 63.455,-86.511c23.057,-34.609 63.43,-57.666 86.511,-92.276c11.553,-5.764 28.845,-23.081 40.374,-28.821l69.219,-57.69c28.821,-17.293 51.902,-28.821 80.747,-46.138c17.293,-11.528 40.374,-17.293 63.43,-23.057c5.764,-5.764 17.317,-5.764 23.081,0c17.293,23.057 40.374,46.138 74.983,40.374c17.293,-5.764 34.609,-11.553 51.902,-28.845c5.764,0 5.764,-5.764 17.293,-11.528c5.764,0 11.553,11.528 17.317,11.528c28.821,0 51.902,0 74.983,-11.528c17.293,-5.764 28.821,-17.317 40.374,-28.845c5.764,0 11.528,11.528 17.293,17.293c17.293,11.553 40.374,11.553 63.455,17.317c-5.764,5.764 -11.553,0 -17.317,0c-57.666,-5.764 -121.121,5.764 -173.023,17.293c-51.926,11.553 -103.828,17.317 -149.966,40.374c-34.609,11.528 -69.219,28.821 -103.828,46.138c-46.138,17.317 -92.3,51.926 -138.438,69.219c-69.195,51.902 -115.357,121.121 -161.494,190.339c-34.585,40.374 -40.374,92.276 -57.666,138.413c-5.764,34.609 -17.317,69.219 -23.081,109.592l-17.293,86.511c-5.764,5.764 -11.553,0 -17.317,-5.764c-5.764,-5.764 -11.528,-11.528 -23.057,-5.764c-5.764,0 -11.553,0 -17.317,5.764c-5.74,-0.024 -5.74,-0.024 -5.74,-5.788Zm63.43,57.666c0,5.764 0,11.553 -5.764,11.553l-17.293,0c-5.764,5.764 -11.528,11.528 -23.081,11.528c-5.764,0 -5.764,-5.764 -11.553,-11.528l0,-11.553l11.553,-11.528c5.764,0 11.553,5.764 17.293,11.528c11.528,0 23.081,-5.764 28.845,0Zm622.896,738.253c-11.528,0 -28.821,-5.764 -34.585,5.764c-5.788,11.528 -5.788,17.293 -5.788,28.821c5.788,0 5.788,5.764 11.553,0c5.764,-5.764 17.293,0 23.081,0l0,11.528c-23.081,11.553 -46.138,0 -69.219,0c-28.821,-11.528 -57.666,-11.528 -86.511,-23.081c-17.293,-5.764 -34.585,-17.293 -51.902,-23.057c-40.374,-17.317 -80.723,-34.609 -121.097,-63.455c-51.926,-34.585 -109.592,-80.723 -144.202,-132.649c-46.138,-63.455 -86.511,-121.121 -115.357,-190.339c-5.764,-23.081 -23.057,-40.374 -28.821,-63.455c-28.845,-63.455 -40.374,-132.649 -57.69,-196.104c0,-5.764 -5.764,-17.317 0,-23.081c11.553,-5.764 17.317,11.528 28.845,0c11.528,-11.528 23.081,-17.293 34.609,-5.764c11.528,17.293 -11.553,40.374 11.528,51.902c5.764,11.528 11.528,17.293 11.528,28.821c-5.764,11.553 0,23.081 5.764,40.374l17.293,69.219c11.553,34.609 28.845,63.455 34.609,98.04c17.293,46.138 57.666,92.276 86.511,132.649c28.845,40.374 63.455,69.219 98.04,103.828c46.138,34.609 98.04,74.983 155.73,92.3c46.138,17.293 86.511,23.081 132.649,34.609c57.666,17.293 121.121,17.293 178.787,23.081l5.764,0c-23.057,5.764 -23.057,40.374 -46.138,28.821c-28.845,-5.716 -51.902,-23.008 -74.983,-28.773Zm196.104,46.138c-28.845,17.293 -46.138,46.138 -46.138,75.007c5.764,40.349 23.057,80.747 46.138,115.332c0,5.764 5.764,5.764 5.764,11.553c-11.553,5.764 -17.317,-5.764 -23.081,-11.553c-23.057,-17.268 -40.374,-63.43 -74.959,-46.114l-17.317,17.317c-5.764,5.764 -11.528,11.553 -17.293,5.764c5.764,-23.081 17.293,-40.398 17.293,-63.479c5.764,-11.553 5.764,-34.585 0,-46.114c-17.293,-11.553 -28.821,-17.317 -46.138,-34.609l11.528,-11.528c17.293,0 46.138,11.528 57.666,-5.764c5.764,-5.788 11.528,-11.553 17.293,-11.553c11.553,17.293 34.609,11.553 46.138,5.764c11.553,0 11.553,0 23.081,-5.764l0.024,5.74Zm720.96,-674.798c-5.764,46.138 -23.081,86.511 -34.634,126.885c-23.033,51.926 -40.349,103.828 -69.195,149.966c-28.797,51.902 -63.43,98.04 -92.251,144.202c-23.081,28.821 -51.95,51.926 -80.796,74.983c-28.797,40.374 -74.983,63.455 -115.332,86.511c-51.902,34.609 -103.828,57.666 -161.494,80.747c-28.845,17.317 -69.195,17.317 -103.828,28.821c-5.764,5.764 -17.317,5.764 -23.033,-5.764l0,-11.553c11.504,-5.764 28.797,-5.764 34.585,-23.081c0,-11.528 -5.764,-17.293 -17.317,-23.057c-17.268,-5.764 -28.797,5.764 -46.114,5.764c-17.317,5.764 -34.634,17.293 -51.926,11.528c-5.764,-5.764 -17.293,-5.764 -17.293,-11.528l0,-5.764c11.528,5.764 28.821,0 46.138,0c28.845,0 57.666,-11.553 86.511,-11.553c51.902,0 92.3,-11.528 132.649,-34.609c46.162,-23.081 86.511,-40.374 121.145,-69.219l69.195,-51.902c40.398,-51.926 103.828,-92.276 138.413,-149.942c40.398,-51.926 63.479,-103.828 86.511,-161.494c17.317,-40.374 23.081,-80.747 40.398,-126.885l17.317,-17.293c0,-11.528 0,-23.081 -5.764,-28.845c0,-5.764 0,-11.553 5.764,-17.293c11.504,-5.764 23.033,11.528 34.585,17.293c5.764,5.764 5.764,17.317 5.764,23.081Zm0,-69.219c-5.764,5.764 -11.553,11.528 -23.081,5.764c-5.764,0 -11.553,-5.764 -17.268,-17.293l0,-11.528c11.504,-11.553 28.797,-11.553 40.349,-5.764l5.764,5.764c5.764,5.74 0,17.268 -5.764,23.057Zm-5.788,-69.219c-5.764,5.764 -17.317,0 -23.081,5.764c0,-17.317 -5.764,-40.374 -11.504,-57.69c-5.764,-11.528 0,-28.821 -11.553,-40.374c-11.553,-51.902 -23.081,-103.804 -46.162,-149.942c-5.764,-23.081 -17.317,-40.374 -28.797,-57.666c-11.553,-34.609 -23.081,-57.666 -40.398,-86.511c-11.553,-11.528 -17.317,-28.845 -28.797,-40.374c-17.317,-17.293 -28.845,-40.374 -51.95,-63.455c-17.317,-5.764 -28.845,-28.821 -46.114,-40.374c-34.634,-17.293 -63.43,-51.902 -98.064,-69.195c-39.578,-16.898 -78.108,-36.155 -115.381,-57.666c-23.033,-11.528 -46.114,-17.293 -69.195,-28.845c0,0 -5.764,0 0,-5.764c5.764,-5.764 17.317,-5.764 28.845,-11.528c5.764,-11.528 17.317,-17.293 28.845,-28.845c31.854,13.066 62.69,28.488 92.251,46.138c40.398,17.317 80.747,34.609 115.381,63.455c40.349,23.081 63.43,57.666 98.064,86.511c40.349,28.845 69.195,74.983 98.016,121.121l34.634,69.219c17.317,34.609 28.845,69.219 46.114,103.828c16.93,44.62 28.555,91.078 34.634,138.413c5.764,34.609 11.553,69.219 11.553,103.828c-5.788,-0.048 -11.553,-5.813 -17.341,-0.048Z" style="fill:#fff;"/><path d="M1612.58,2073.185c0,5.788 -11.553,17.293 -5.764,23.081c5.764,17.293 5.764,34.609 17.317,46.138c5.764,17.293 11.553,34.585 23.081,46.138c11.528,11.553 23.081,5.764 34.585,11.553c5.764,0 5.764,5.764 5.764,11.553c-5.764,11.553 -17.268,11.553 -28.797,11.553c-23.081,11.553 -51.95,23.081 -74.983,34.585c-5.764,5.764 -5.764,17.317 -17.317,11.553c-11.553,-11.553 -11.553,-28.797 -23.081,-40.349c0,-5.764 0,-11.553 5.764,-11.553c5.764,0 5.764,5.764 11.553,5.764c11.553,0 17.317,5.764 23.081,5.764c5.764,-5.764 11.504,-11.553 23.033,-17.317l-5.764,-28.845c-5.764,0 -11.504,-5.764 -17.268,0c-5.764,5.764 0,17.317 -11.553,17.317c0,5.764 -5.764,0 -5.764,-5.764c-5.764,-11.553 -11.553,-23.081 -11.553,-40.374c5.764,-11.528 17.317,5.764 28.845,0l0,-11.528c-11.553,-11.528 -11.553,-40.374 -34.634,-28.845c-11.553,5.764 -23.081,5.764 -28.845,17.317c0,5.764 0,17.317 -11.504,23.057c0,0 -5.764,0 -5.764,-5.74c-5.764,-5.788 0,-11.553 0,-23.105c0,-5.764 -5.764,-17.293 5.764,-17.293c23.033,-11.553 51.902,-17.317 74.983,-28.821c11.504,-5.837 17.268,-11.601 28.821,-5.837Zm-622.896,57.69c17.293,34.585 0,74.983 -11.528,115.381c0,5.716 0,23.033 11.528,28.797c0,5.764 -5.764,11.553 -5.764,11.553c-11.553,0 -23.081,-5.764 -34.609,-11.553c-5.764,-5.764 -23.081,0 -28.821,-5.764c0,-11.553 11.528,-11.553 17.293,-17.317l5.764,-5.716c11.528,-28.845 23.081,-57.715 23.081,-86.536c0,-11.528 -5.764,-23.081 -17.293,-28.821c-11.528,0 -28.821,0 -40.374,17.317c-11.528,17.268 -28.845,40.349 -28.845,63.43c0,17.317 5.764,23.081 11.553,34.634c0,0 0,5.716 -5.764,5.716c-11.528,0 -28.821,-11.504 -40.374,-23.033c-11.528,0 -23.057,5.764 -28.821,-11.553l5.764,-5.764c17.293,-5.764 11.528,-28.845 23.057,-40.398c11.553,-28.821 34.609,-57.666 63.455,-69.195c28.797,-5.788 63.406,-5.788 80.699,28.821Zm-196.079,-92.3c-17.293,-11.528 -40.374,-28.845 -57.666,-34.609c-23.081,-5.764 -46.138,0 -63.455,17.293c-11.528,17.293 -5.764,40.374 0,57.69c5.764,11.528 -11.528,11.528 -17.293,17.293c-11.553,17.293 -5.764,40.374 0,57.666c5.764,11.528 23.057,11.528 34.609,23.057c17.293,11.553 34.609,17.317 51.902,28.845c5.764,0 11.528,0 11.528,-5.764c0,-5.764 -11.528,-17.317 -17.293,-23.081c-5.764,-17.293 11.528,-23.057 17.293,-40.374c11.553,-17.293 28.845,-46.138 51.926,-57.666c5.764,-5.788 23.081,5.764 28.845,-5.788c-11.553,-17.244 -28.869,-23.033 -40.398,-34.561Zm-86.536,115.357c-11.528,5.764 -17.293,-11.528 -23.081,-11.528l0,-17.317c5.764,-5.764 11.553,-5.764 17.293,-5.764l17.293,17.293c0.024,5.788 -5.716,11.577 -11.504,17.317Zm34.609,-74.959c-5.764,5.764 -5.764,11.528 -11.528,11.528c-5.764,0 -17.293,-5.764 -17.293,-17.293l0,-28.821c11.528,-5.764 28.821,-5.764 40.374,5.764c5.74,11.504 -11.553,17.268 -11.553,28.821Z" style="fill:#fff;"/></g></svg>